<svg width="80" height="81" viewBox="0 0 80 81" fill="none" xmlns="http://www.w3.org/2000/svg">
<g clip-path="url(#clip0_83_15452)">
<path d="M76.4343 16.8389C76.4343 16.8069 76.5791 16.7823 76.7591 16.7823C76.9392 16.7823 77.084 16.8088 77.084 16.8389C77.084 16.871 76.9392 16.8955 76.7591 16.8955C76.581 16.8974 76.4343 16.871 76.4343 16.8389Z" fill="#E0E0E0"/>
<path d="M75.135 16.8389C75.135 16.8069 75.2798 16.7823 75.4598 16.7823C75.6399 16.7823 75.7846 16.8088 75.7846 16.8389C75.7846 16.871 75.6399 16.8955 75.4598 16.8955C75.2798 16.8974 75.135 16.871 75.135 16.8389Z" fill="#E0E0E0"/>
<path d="M73.8357 16.8389C73.8357 16.8069 73.9805 16.7823 74.1605 16.7823C74.3406 16.7823 74.4853 16.8088 74.4853 16.8389C74.4853 16.871 74.3406 16.8955 74.1605 16.8955C73.9805 16.8974 73.8357 16.871 73.8357 16.8389Z" fill="#E0E0E0"/>
<path d="M72.5366 16.8389C72.5366 16.8069 72.6814 16.7823 72.8614 16.7823C73.0415 16.7823 73.1863 16.8088 73.1863 16.8389C73.1863 16.871 73.0415 16.8955 72.8614 16.8955C72.6814 16.8974 72.5366 16.871 72.5366 16.8389Z" fill="#E0E0E0"/>
<path d="M71.2373 16.8389C71.2373 16.8069 71.3821 16.7823 71.5621 16.7823C71.7422 16.7823 71.8869 16.8088 71.8869 16.8389C71.8869 16.871 71.7422 16.8955 71.5621 16.8955C71.3821 16.8974 71.2373 16.871 71.2373 16.8389Z" fill="#E0E0E0"/>
<path d="M69.936 16.8389C69.936 16.8069 70.0808 16.7823 70.2609 16.7823C70.4409 16.7823 70.5857 16.8088 70.5857 16.8389C70.5857 16.871 70.4409 16.8955 70.2609 16.8955C70.0827 16.8974 69.936 16.871 69.936 16.8389Z" fill="#E0E0E0"/>
<path d="M68.637 16.8389C68.637 16.8069 68.7817 16.7823 68.9618 16.7823C69.1418 16.7823 69.2866 16.8088 69.2866 16.8389C69.2866 16.871 69.1418 16.8955 68.9618 16.8955C68.7836 16.8974 68.637 16.871 68.637 16.8389Z" fill="#E0E0E0"/>
<path d="M67.3376 16.8389C67.3376 16.8069 67.4824 16.7823 67.6625 16.7823C67.8425 16.7823 67.9873 16.8088 67.9873 16.8389C67.9873 16.871 67.8425 16.8955 67.6625 16.8955C67.4824 16.8974 67.3376 16.871 67.3376 16.8389Z" fill="#E0E0E0"/>
<path d="M66.0383 16.8389C66.0383 16.8069 66.1831 16.7823 66.3631 16.7823C66.5432 16.7823 66.688 16.8088 66.688 16.8389C66.688 16.871 66.5432 16.8955 66.3631 16.8955C66.1831 16.8974 66.0383 16.871 66.0383 16.8389Z" fill="#E0E0E0"/>
<path d="M64.739 16.8389C64.739 16.8069 64.8838 16.7823 65.0638 16.7823C65.2439 16.7823 65.3887 16.8088 65.3887 16.8389C65.3887 16.871 65.2439 16.8955 65.0638 16.8955C64.8838 16.8974 64.739 16.871 64.739 16.8389Z" fill="#E0E0E0"/>
<path d="M63.438 16.8389C63.438 16.8069 63.5828 16.7823 63.7628 16.7823C63.9428 16.7823 64.0876 16.8088 64.0876 16.8389C64.0876 16.871 63.9428 16.8955 63.7628 16.8955C63.5846 16.8974 63.438 16.871 63.438 16.8389Z" fill="#E0E0E0"/>
<path d="M62.1387 16.8389C62.1387 16.8069 62.2834 16.7823 62.4635 16.7823C62.6435 16.7823 62.7883 16.8088 62.7883 16.8389C62.7883 16.871 62.6435 16.8955 62.4635 16.8955C62.2853 16.8974 62.1387 16.871 62.1387 16.8389Z" fill="#E0E0E0"/>
<path d="M61.2124 16.4598C61.244 16.4598 61.2681 16.6069 61.2681 16.7899C61.2681 16.8068 61.2681 16.8219 61.2681 16.8389L61.2124 16.7823C61.3683 16.7861 61.489 16.8106 61.489 16.8389C61.489 16.8672 61.3702 16.8917 61.2124 16.8955L61.1567 16.8974V16.8389C61.1567 16.8219 61.1567 16.805 61.1567 16.7899C61.1567 16.6069 61.1827 16.4598 61.2124 16.4598Z" fill="#E0E0E0"/>
<path d="M61.2124 15.1398C61.244 15.1398 61.2681 15.2869 61.2681 15.4698C61.2681 15.6527 61.2421 15.7998 61.2124 15.7998C61.1809 15.7998 61.1567 15.6527 61.1567 15.4698C61.1567 15.2869 61.1827 15.1398 61.2124 15.1398Z" fill="#E0E0E0"/>
<path d="M61.2124 13.8196C61.244 13.8196 61.2681 13.9667 61.2681 14.1496C61.2681 14.3325 61.2421 14.4796 61.2124 14.4796C61.1809 14.4796 61.1567 14.3325 61.1567 14.1496C61.1567 13.9667 61.1827 13.8196 61.2124 13.8196Z" fill="#E0E0E0"/>
<path d="M61.2124 12.4995C61.244 12.4995 61.2681 12.6466 61.2681 12.8295C61.2681 13.0125 61.2421 13.1596 61.2124 13.1596C61.1809 13.1596 61.1567 13.0125 61.1567 12.8295C61.1567 12.6466 61.1827 12.4995 61.2124 12.4995Z" fill="#E0E0E0"/>
<path d="M61.2124 11.1775C61.244 11.1775 61.2681 11.3246 61.2681 11.5075C61.2681 11.6904 61.2421 11.8375 61.2124 11.8375C61.1809 11.8375 61.1567 11.6904 61.1567 11.5075C61.1567 11.3265 61.1827 11.1775 61.2124 11.1775Z" fill="#E0E0E0"/>
<path d="M61.2124 9.85742C61.244 9.85742 61.2681 10.0045 61.2681 10.1874C61.2681 10.3704 61.2421 10.5175 61.2124 10.5175C61.1809 10.5175 61.1567 10.3704 61.1567 10.1874C61.1567 10.0064 61.1827 9.85742 61.2124 9.85742Z" fill="#E0E0E0"/>
<path d="M61.2124 8.53735C61.244 8.53735 61.2681 8.68445 61.2681 8.86738C61.2681 9.05031 61.2421 9.19741 61.2124 9.19741C61.1809 9.19741 61.1567 9.05031 61.1567 8.86738C61.1567 8.68445 61.1827 8.53735 61.2124 8.53735Z" fill="#E0E0E0"/>
<path d="M61.2124 7.21716C61.244 7.21716 61.2681 7.36426 61.2681 7.54719C61.2681 7.73012 61.2421 7.87722 61.2124 7.87722C61.1809 7.87722 61.1567 7.73012 61.1567 7.54719C61.1567 7.36426 61.1827 7.21716 61.2124 7.21716Z" fill="#E0E0E0"/>
<path d="M61.2124 5.89709C61.244 5.89709 61.2681 6.04419 61.2681 6.22712C61.2681 6.41005 61.2421 6.55715 61.2124 6.55715C61.1809 6.55715 61.1567 6.41005 61.1567 6.22712C61.1567 6.04419 61.1827 5.89709 61.2124 5.89709Z" fill="#E0E0E0"/>
<path d="M61.2124 4.57507C61.244 4.57507 61.2681 4.72217 61.2681 4.9051C61.2681 5.08803 61.2421 5.23513 61.2124 5.23513C61.1809 5.23513 61.1567 5.08803 61.1567 4.9051C61.1567 4.72406 61.1827 4.57507 61.2124 4.57507Z" fill="#E0E0E0"/>
<path d="M61.2124 3.255C61.244 3.255 61.2681 3.4021 61.2681 3.58503C61.2681 3.76796 61.2421 3.91506 61.2124 3.91506C61.1809 3.91506 61.1567 3.76796 61.1567 3.58503C61.1567 3.40399 61.1827 3.255 61.2124 3.255Z" fill="#E0E0E0"/>
<path d="M61.2124 1.93481C61.244 1.93481 61.2681 2.08191 61.2681 2.26484C61.2681 2.44777 61.2421 2.59487 61.2124 2.59487C61.1809 2.59487 61.1567 2.44777 61.1567 2.26484C61.1567 2.08191 61.1827 1.93481 61.2124 1.93481Z" fill="#E0E0E0"/>
<path d="M61.311 0.713162C61.311 0.728249 61.2739 0.743336 61.2145 0.754652L61.2553 0.713162C61.2646 0.77351 61.272 0.854603 61.272 0.945124C61.272 1.12805 61.246 1.27515 61.2163 1.27515C61.1848 1.27515 61.1606 1.12805 61.1606 0.945124C61.1606 0.854603 61.1662 0.77351 61.1773 0.713162L61.1848 0.666016L61.2163 0.671673C61.2739 0.682988 61.311 0.698075 61.311 0.713162Z" fill="#E0E0E0"/>
<path d="M62.6101 0.712826C62.6101 0.744886 62.4653 0.769402 62.2853 0.769402C62.1052 0.769402 61.9604 0.743 61.9604 0.712826C61.9604 0.680766 62.1052 0.65625 62.2853 0.65625C62.4653 0.65625 62.6101 0.682652 62.6101 0.712826Z" fill="#E0E0E0"/>
<path d="M63.9094 0.712826C63.9094 0.744886 63.7646 0.769402 63.5846 0.769402C63.4045 0.769402 63.2598 0.743 63.2598 0.712826C63.2598 0.680766 63.4045 0.65625 63.5846 0.65625C63.7646 0.65625 63.9094 0.682652 63.9094 0.712826Z" fill="#E0E0E0"/>
<path d="M65.2087 0.712826C65.2087 0.744886 65.0639 0.769402 64.8839 0.769402C64.7039 0.769402 64.5591 0.743 64.5591 0.712826C64.5591 0.680766 64.7039 0.65625 64.8839 0.65625C65.0639 0.65625 65.2087 0.682652 65.2087 0.712826Z" fill="#E0E0E0"/>
<path d="M66.5097 0.712826C66.5097 0.744886 66.365 0.769402 66.1849 0.769402C66.0049 0.769402 65.8601 0.743 65.8601 0.712826C65.8601 0.680766 66.0049 0.65625 66.1849 0.65625C66.3631 0.65625 66.5097 0.682652 66.5097 0.712826Z" fill="#E0E0E0"/>
<path d="M67.8091 0.712826C67.8091 0.744886 67.6643 0.769402 67.4842 0.769402C67.3042 0.769402 67.1594 0.743 67.1594 0.712826C67.1594 0.680766 67.3042 0.65625 67.4842 0.65625C67.6624 0.65625 67.8091 0.682652 67.8091 0.712826Z" fill="#E0E0E0"/>
<path d="M69.1084 0.712826C69.1084 0.744886 68.9636 0.769402 68.7836 0.769402C68.6035 0.769402 68.4587 0.743 68.4587 0.712826C68.4587 0.680766 68.6035 0.65625 68.7836 0.65625C68.9636 0.65625 69.1084 0.682652 69.1084 0.712826Z" fill="#E0E0E0"/>
<path d="M70.4074 0.712826C70.4074 0.744886 70.2627 0.769402 70.0826 0.769402C69.9026 0.769402 69.7578 0.743 69.7578 0.712826C69.7578 0.680766 69.9026 0.65625 70.0826 0.65625C70.2627 0.65625 70.4074 0.682652 70.4074 0.712826Z" fill="#E0E0E0"/>
<path d="M71.7068 0.712826C71.7068 0.744886 71.562 0.769402 71.3819 0.769402C71.2019 0.769402 71.0571 0.743 71.0571 0.712826C71.0571 0.680766 71.2019 0.65625 71.3819 0.65625C71.562 0.65625 71.7068 0.682652 71.7068 0.712826Z" fill="#E0E0E0"/>
<path d="M73.0061 0.712826C73.0061 0.744886 72.8613 0.769402 72.6813 0.769402C72.5012 0.769402 72.3564 0.743 72.3564 0.712826C72.3564 0.680766 72.5012 0.65625 72.6813 0.65625C72.8613 0.65625 73.0061 0.682652 73.0061 0.712826Z" fill="#E0E0E0"/>
<path d="M74.3074 0.712826C74.3074 0.744886 74.1626 0.769402 73.9825 0.769402C73.8025 0.769402 73.6577 0.743 73.6577 0.712826C73.6577 0.680766 73.8025 0.65625 73.9825 0.65625C74.1607 0.65625 74.3074 0.682652 74.3074 0.712826Z" fill="#E0E0E0"/>
<path d="M75.6064 0.712826C75.6064 0.744886 75.4616 0.769402 75.2816 0.769402C75.1016 0.769402 74.9568 0.743 74.9568 0.712826C74.9568 0.680766 75.1016 0.65625 75.2816 0.65625C75.4598 0.65625 75.6064 0.682652 75.6064 0.712826Z" fill="#E0E0E0"/>
<path d="M76.9057 0.712826C76.9057 0.744886 76.761 0.769402 76.5809 0.769402C76.4009 0.769402 76.2561 0.743 76.2561 0.712826C76.2561 0.680766 76.4009 0.65625 76.5809 0.65625C76.761 0.65625 76.9057 0.682652 76.9057 0.712826Z" fill="#E0E0E0"/>
<path d="M77.084 1.85195C77.0524 1.85195 77.0283 1.70485 77.0283 1.52192C77.0283 1.33899 77.0543 1.19189 77.084 1.19189C77.1156 1.19189 77.1397 1.33899 77.1397 1.52192C77.1415 1.70485 77.1156 1.85195 77.084 1.85195Z" fill="#E0E0E0"/>
<path d="M77.084 3.17202C77.0524 3.17202 77.0283 3.02492 77.0283 2.84199C77.0283 2.65906 77.0543 2.51196 77.084 2.51196C77.1156 2.51196 77.1397 2.65906 77.1397 2.84199C77.1415 3.02492 77.1156 3.17202 77.084 3.17202Z" fill="#E0E0E0"/>
<path d="M77.084 4.49209C77.0524 4.49209 77.0283 4.34499 77.0283 4.16206C77.0283 3.97913 77.0543 3.83203 77.084 3.83203C77.1156 3.83203 77.1397 3.97913 77.1397 4.16206C77.1415 4.34499 77.1156 4.49209 77.084 4.49209Z" fill="#E0E0E0"/>
<path d="M77.084 5.81411C77.0524 5.81411 77.0283 5.66701 77.0283 5.48408C77.0283 5.30115 77.0543 5.15405 77.084 5.15405C77.1156 5.15405 77.1397 5.30115 77.1397 5.48408C77.1415 5.66512 77.1156 5.81411 77.084 5.81411Z" fill="#E0E0E0"/>
<path d="M77.084 7.13418C77.0524 7.13418 77.0283 6.98708 77.0283 6.80415C77.0283 6.62122 77.0543 6.47412 77.084 6.47412C77.1156 6.47412 77.1397 6.62122 77.1397 6.80415C77.1415 6.98519 77.1156 7.13418 77.084 7.13418Z" fill="#E0E0E0"/>
<path d="M77.084 8.45437C77.0524 8.45437 77.0283 8.30727 77.0283 8.12434C77.0283 7.94141 77.0543 7.79431 77.084 7.79431C77.1156 7.79431 77.1397 7.94141 77.1397 8.12434C77.1415 8.30727 77.1156 8.45437 77.084 8.45437Z" fill="#E0E0E0"/>
<path d="M77.084 9.77443C77.0524 9.77443 77.0283 9.62734 77.0283 9.44441C77.0283 9.26148 77.0543 9.11438 77.084 9.11438C77.1156 9.11438 77.1397 9.26148 77.1397 9.44441C77.1415 9.62734 77.1156 9.77443 77.084 9.77443Z" fill="#E0E0E0"/>
<path d="M77.084 11.0945C77.0524 11.0945 77.0283 10.9474 77.0283 10.7645C77.0283 10.5815 77.0543 10.4344 77.084 10.4344C77.1156 10.4344 77.1397 10.5815 77.1397 10.7645C77.1415 10.9474 77.1156 11.0945 77.084 11.0945Z" fill="#E0E0E0"/>
<path d="M77.084 12.4165C77.0524 12.4165 77.0283 12.2694 77.0283 12.0865C77.0283 11.9036 77.0543 11.7565 77.084 11.7565C77.1156 11.7565 77.1397 11.9036 77.1397 12.0865C77.1415 12.2675 77.1156 12.4165 77.084 12.4165Z" fill="#E0E0E0"/>
<path d="M77.084 13.7366C77.0524 13.7366 77.0283 13.5895 77.0283 13.4066C77.0283 13.2236 77.0543 13.0765 77.084 13.0765C77.1156 13.0765 77.1397 13.2236 77.1397 13.4066C77.1415 13.5876 77.1156 13.7366 77.084 13.7366Z" fill="#E0E0E0"/>
<path d="M77.084 15.0568C77.0524 15.0568 77.0283 14.9097 77.0283 14.7268C77.0283 14.5438 77.0543 14.3967 77.084 14.3967C77.1156 14.3967 77.1397 14.5438 77.1397 14.7268C77.1415 14.9097 77.1156 15.0568 77.084 15.0568Z" fill="#E0E0E0"/>
<path d="M77.084 16.3769C77.0524 16.3769 77.0283 16.2298 77.0283 16.0468C77.0283 15.8639 77.0543 15.7168 77.084 15.7168C77.1156 15.7168 77.1397 15.8639 77.1397 16.0468C77.1415 16.2298 77.1156 16.3769 77.084 16.3769Z" fill="#E0E0E0"/>
<path d="M77.6725 16.079H76.4976V17.2727H77.6725V16.079Z" fill="#E0E0E0"/>
<path d="M61.8009 16.243H60.626V17.4368H61.8009V16.243Z" fill="#E0E0E0"/>
<path d="M77.6725 0H76.4976V1.19376H77.6725V0Z" fill="#E0E0E0"/>
<path d="M61.8009 0.116943H60.626V1.3107H61.8009V0.116943Z" fill="#E0E0E0"/>
<path d="M15.259 21.2519C17.3119 19.4245 17.4975 16.4373 17.1244 13.8122C17.0613 13.3746 17.0595 12.9051 16.8108 12.543C16.562 12.1809 16.0535 11.9697 15.686 12.1997C15.3815 12.3902 15.2832 12.7844 15.1365 13.1201C14.9435 13.5651 14.6243 13.9498 14.2289 14.2195C13.9691 14.3949 13.6387 14.5231 13.3491 14.4006C12.9538 14.2327 12.8517 13.7141 12.8071 13.2766C12.7236 12.46 12.6401 11.6453 12.5566 10.8287C12.512 10.3912 12.4638 9.94425 12.2856 9.54444C12.1074 9.14464 11.7696 8.79198 11.3464 8.7222C10.925 8.65243 10.4443 8.94851 10.4035 9.38603C10.3868 9.56896 10.4425 9.75 10.4499 9.93105C10.4573 10.114 10.396 10.3233 10.2327 10.3931C10.0657 10.4629 9.88005 10.3591 9.73899 10.246C9.24712 9.85373 8.88332 9.32002 8.53994 8.78444C8.19656 8.25074 7.86061 7.70195 7.40586 7.26443C6.95112 6.82879 6.3516 6.50819 5.73166 6.54214C5.11172 6.57608 4.49735 7.03624 4.40825 7.668C4.31916 8.30165 4.7405 8.88816 5.18039 9.34454C5.83189 10.0216 6.5799 10.6005 7.39101 11.0588C7.53765 11.1418 7.69542 11.2304 7.76595 11.3869C7.89031 11.6679 7.65087 11.9885 7.37802 12.1149C7.06805 12.2601 6.71725 12.2639 6.38501 12.3431C6.05462 12.4204 5.70567 12.6128 5.61472 12.9484C5.48665 13.4142 5.90613 13.8423 6.30148 14.1082C7.09404 14.6419 7.97383 15.0342 8.8926 15.2643C9.22113 15.3473 9.56637 15.4133 9.84664 15.6094C10.1269 15.8074 10.3237 16.1827 10.203 16.5071C10.0824 16.8333 9.6963 16.9767 9.35849 16.9503C9.02067 16.9257 8.70328 16.7749 8.37475 16.69C7.75852 16.5297 6.99938 16.6561 6.67641 17.218C6.46482 17.5877 6.49452 18.0648 6.66342 18.4589C6.83418 18.8512 7.12745 19.1737 7.4337 19.466C8.50468 20.49 9.81694 21.2632 11.2424 21.5933C12.6642 21.9214 13.9505 21.9101 15.259 21.2519Z" fill="#E0E0E0"/>
<path d="M15.5058 23.2C15.2979 22.1666 14.9397 20.9596 14.4107 19.6735C13.8854 18.3873 13.1931 17.0257 12.421 15.6264C12.2261 15.2775 12.0349 14.9324 11.8456 14.5929C11.6563 14.2535 11.4688 13.9178 11.2646 13.601C10.86 12.9654 10.4219 12.3846 9.99132 11.8471C9.55885 11.3096 9.13009 10.8137 8.72546 10.3554C8.31897 9.89712 7.93476 9.47657 7.56539 9.10882C6.83223 8.36956 6.17146 7.84718 5.70372 7.50583C5.46985 7.33422 5.28424 7.20787 5.15803 7.123C5.09677 7.0834 5.04852 7.05134 5.01325 7.02871C4.97984 7.00796 4.96313 6.99854 4.96313 6.99854C4.96313 7.00042 4.97798 7.01174 5.00954 7.03625C5.0448 7.06077 5.09121 7.09471 5.1506 7.13809C5.27496 7.22673 5.45686 7.35685 5.68702 7.53224C6.14733 7.88112 6.80068 8.40917 7.52642 9.15031C7.89021 9.51994 8.27257 9.94049 8.67535 10.4025C9.07812 10.8646 9.50317 11.3587 9.93378 11.898C10.3625 12.4355 10.7969 13.0145 11.1978 13.6481C11.4001 13.9631 11.5857 14.2969 11.775 14.6363C11.9644 14.9758 12.1555 15.3209 12.3486 15.6698C13.1189 17.0672 13.8112 18.425 14.3402 19.7074C14.871 20.9879 15.233 22.1873 15.4464 23.2151" fill="#FAFAFA"/>
<path d="M11.2425 13.6009C11.248 13.6009 11.2555 13.533 11.2647 13.4104C11.274 13.2878 11.2814 13.1087 11.2889 12.8862C11.3019 12.443 11.3 11.832 11.2963 11.1587C11.2926 10.4836 11.2981 9.87442 11.3186 9.43313C11.3278 9.21248 11.3371 9.03521 11.3464 8.91074C11.3538 8.78816 11.3557 8.71838 11.3501 8.71838C11.3445 8.71838 11.3334 8.78439 11.3167 8.90697C11.3 9.02955 11.2814 9.20682 11.2647 9.42936C11.2295 9.87065 11.2146 10.4836 11.2183 11.1587C11.2239 11.8244 11.2295 12.426 11.235 12.8862C11.235 13.0936 11.2369 13.269 11.2369 13.4085C11.235 13.5311 11.2369 13.6009 11.2425 13.6009Z" fill="#FAFAFA"/>
<path d="M5.59424 13.1691C5.59424 13.1747 5.67405 13.1747 5.81697 13.171C5.95989 13.1672 6.16778 13.1615 6.42392 13.1634C6.9362 13.1615 7.64524 13.1861 8.42666 13.2464C9.20808 13.3086 9.91154 13.3954 10.4201 13.4727C10.6744 13.5104 10.8786 13.5463 11.0215 13.5689C11.1626 13.5934 11.2424 13.6047 11.2442 13.5991C11.2461 13.5934 11.1681 13.5727 11.0289 13.5387C10.8879 13.5048 10.6855 13.4614 10.4312 13.4161C9.92453 13.3237 9.21921 13.2275 8.43594 13.1653C7.65266 13.105 6.94177 13.0899 6.42763 13.1069C6.16963 13.1125 5.96175 13.1276 5.81883 13.1408C5.67219 13.154 5.59424 13.1634 5.59424 13.1691Z" fill="#FAFAFA"/>
<path d="M14.3309 19.5791C14.3328 19.5791 14.3439 19.5546 14.3606 19.5055C14.381 19.4471 14.4033 19.3773 14.433 19.2906C14.4943 19.1039 14.5778 18.8323 14.6762 18.4947C14.8729 17.8215 15.1161 16.8804 15.3722 15.8394C15.6265 14.7984 15.8622 13.8574 16.0441 13.1803C16.1332 12.8503 16.2074 12.5806 16.2631 12.3788C16.2873 12.2921 16.3058 12.2204 16.3207 12.1601C16.3337 12.1092 16.3392 12.0828 16.3355 12.0828C16.3337 12.0828 16.3225 12.1073 16.3058 12.1563C16.2854 12.2148 16.2631 12.2846 16.2334 12.3694C16.1722 12.5561 16.0887 12.8277 15.9903 13.1653C15.7935 13.8385 15.5504 14.7796 15.2942 15.8206C15.04 16.8616 14.8042 17.8026 14.6223 18.4796C14.5314 18.8097 14.459 19.0793 14.4033 19.2811C14.3792 19.3679 14.3606 19.4414 14.3458 19.4999C14.3346 19.5508 14.3291 19.5772 14.3309 19.5791Z" fill="#FAFAFA"/>
<path d="M6.71533 17.995C6.71533 17.9969 6.74132 18.0063 6.79143 18.0176C6.85083 18.0308 6.92507 18.0459 7.01231 18.0667C7.21648 18.11 7.49304 18.1666 7.82714 18.2383C8.51575 18.3835 9.46422 18.5928 10.5129 18.8286C11.5616 19.0624 12.5138 19.2661 13.2043 19.3962C13.5495 19.4622 13.8298 19.5113 14.0247 19.5414C14.1138 19.5546 14.188 19.5659 14.2493 19.5754C14.3012 19.5829 14.3272 19.5848 14.3291 19.581C14.3291 19.5791 14.3031 19.5697 14.253 19.5584C14.1936 19.5452 14.1212 19.5301 14.0321 19.5094C13.8279 19.466 13.5514 19.4094 13.2173 19.3377C12.5287 19.1925 11.5802 18.9832 10.5315 18.7475C9.48279 18.5136 8.53246 18.3118 7.84013 18.1817C7.4949 18.1157 7.21462 18.0667 7.01973 18.0365C6.93064 18.0233 6.8564 18.012 6.79514 18.0026C6.74317 17.995 6.71719 17.9912 6.71533 17.995Z" fill="#FAFAFA"/>
<path d="M57.6855 74.1195C66.7135 64.9467 66.7135 50.0748 57.6855 40.902C48.6576 31.7293 34.0203 31.7293 24.9923 40.902C15.9644 50.0748 15.9644 64.9467 24.9923 74.1195C34.0203 83.2922 48.6576 83.2922 57.6855 74.1195Z" fill="#E0E0E0"/>
<path d="M41.3391 76.0476C31.279 76.0476 23.0955 67.7328 23.0955 57.5114C23.0955 47.29 31.279 38.9752 41.3391 38.9752C51.3992 38.9752 59.5828 47.29 59.5828 57.5114C59.5828 67.731 51.3992 76.0476 41.3391 76.0476ZM41.3391 39.1638C31.3811 39.1638 23.2811 47.3937 23.2811 57.5114C23.2811 67.6291 31.3811 75.8591 41.3391 75.8591C51.2971 75.8591 59.3972 67.6291 59.3972 57.5114C59.3972 47.3937 51.2953 39.1638 41.3391 39.1638Z" fill="#FAFAFA"/>
<path d="M41.3391 79.0028C29.6753 79.0028 20.1851 69.3622 20.1851 57.5095C20.1851 45.6568 29.6753 36.0162 41.3391 36.0162C53.0029 36.0162 62.4931 45.6568 62.4931 57.5095C62.4931 69.3622 53.0029 79.0028 41.3391 79.0028ZM41.3391 36.2067C29.7774 36.2067 20.3707 45.7643 20.3707 57.5114C20.3707 69.2585 29.7774 78.8161 41.3391 78.8161C52.9008 78.8161 62.3075 69.2585 62.3075 57.5114C62.3057 45.7643 52.9008 36.2067 41.3391 36.2067Z" fill="#FAFAFA"/>
<path d="M41.339 73.5828C32.6171 73.5828 25.5212 66.3731 25.5212 57.5114C25.5212 48.6497 32.6171 41.4401 41.339 41.4401C50.0608 41.4401 57.1567 48.6497 57.1567 57.5114C57.1567 66.3731 50.0608 73.5828 41.339 73.5828ZM41.339 41.6268C32.7192 41.6268 25.7069 48.7516 25.7069 57.5096C25.7069 66.2675 32.7192 73.3924 41.339 73.3924C49.9587 73.3924 56.9711 66.2675 56.9711 57.5096C56.9711 48.7516 49.9587 41.6268 41.339 41.6268Z" fill="#FAFAFA"/>
<path d="M41.3391 71.0651C33.9834 71.0651 27.9993 64.9851 27.9993 57.5114C27.9993 50.0377 33.9834 43.9576 41.3391 43.9576C48.6948 43.9576 54.6789 50.0377 54.6789 57.5114C54.6789 64.9851 48.6948 71.0651 41.3391 71.0651ZM41.3391 44.1462C34.0854 44.1462 28.1849 50.1414 28.1849 57.5114C28.1849 64.8814 34.0854 70.8765 41.3391 70.8765C48.5928 70.8765 54.4933 64.8814 54.4933 57.5114C54.4933 50.1414 48.5928 44.1462 41.3391 44.1462Z" fill="#FAFAFA"/>
<path d="M41.3391 68.4834C35.3847 68.4834 30.5403 63.5613 30.5403 57.5114C30.5403 51.4615 35.3847 46.5394 41.3391 46.5394C47.2935 46.5394 52.1379 51.4615 52.1379 57.5114C52.1379 63.5613 47.2935 68.4834 41.3391 68.4834ZM41.3391 46.7261C35.4868 46.7261 30.7259 51.5634 30.7259 57.5095C30.7259 63.4557 35.4868 68.2929 41.3391 68.2929C47.1914 68.2929 51.9523 63.4557 51.9523 57.5095C51.9523 51.5634 47.1914 46.7261 41.3391 46.7261Z" fill="#FAFAFA"/>
<path d="M41.339 66.16C36.6449 66.16 32.8269 62.2808 32.8269 57.5114C32.8269 52.742 36.6449 48.8628 41.339 48.8628C46.0331 48.8628 49.8511 52.742 49.8511 57.5114C49.8511 62.2789 46.0312 66.16 41.339 66.16ZM41.339 49.0495C36.747 49.0495 33.0125 52.8439 33.0125 57.5095C33.0125 62.1751 36.747 65.9695 41.339 65.9695C45.931 65.9695 49.6655 62.1751 49.6655 57.5095C49.6655 52.8458 45.9292 49.0495 41.339 49.0495Z" fill="#FAFAFA"/>
<path d="M48.576 0.927856H39.6055V10.0423H48.576V0.927856Z" fill="#EBEBEB"/>
<path d="M50.9456 48.5153L30.8149 50.0104L32.4311 72.4744L52.5617 70.9793L50.9456 48.5153Z" fill="#263238"/>
<path d="M50.3396 59.8632L50.0445 53.223L32.4597 54.8996L33.1316 61.7981L50.3396 59.8632Z" fill="#455A64"/>
<path d="M54.0202 71.3877L31.4834 72.9265C30.6982 72.9793 30.0189 72.3759 29.9651 71.5781C29.9131 70.7804 30.5071 70.0902 31.2922 70.0355L53.829 68.4966C54.6142 68.4438 55.2935 69.0473 55.3473 69.845C55.3993 70.6427 54.8053 71.333 54.0202 71.3877Z" fill="#455A64"/>
<path d="M79.0552 21.0765H4.05737V55.5955H79.0552V21.0765Z" fill="#EBEBEB"/>
<path d="M4.05737 55.5955L5.99515 56.6214L77.1991 56.5535L79.0552 55.5955H4.05737Z" fill="#E0E0E0"/>
<path d="M24.4005 52.3385L24.2668 29.0914H59.4233V52.5781L24.4005 52.3385Z" fill="#455A64"/>
<path d="M31.6542 47.9124C33.0147 47.8408 34.3994 48.1651 35.7581 48.3254L35.0286 48.1293C34.9154 46.8167 35.411 45.4627 36.3409 44.5443C37.2708 43.6258 38.6165 43.1619 39.9046 43.3147C40.8716 43.4297 41.822 43.871 42.7834 43.7069C44.543 43.4052 45.4488 41.2761 47.1193 40.6386C49.2557 39.8239 51.7447 41.7287 53.8514 40.8366C54.7052 40.4746 55.3251 39.7108 56.1177 39.2261C56.797 38.8112 57.7808 38.6924 58.3524 39.1677V34.172C57.79 35.279 56.4035 35.8165 55.1544 35.7109C53.8291 35.5996 52.6245 34.9244 51.4737 34.2531C50.3229 33.5817 49.1387 32.882 47.8209 32.7104C45.9462 32.4653 44.1272 33.3177 42.3083 33.8382C40.6656 34.3078 38.8967 34.5114 37.2578 34.0287C37.204 34.0136 37.1501 33.9909 37.0963 33.9721C36.8903 34.1682 36.6676 34.3398 36.4133 34.4662C35.0175 35.1526 33.1558 34.2323 31.8825 35.13C31.1197 35.6675 30.8542 36.6745 30.2937 37.427C29.2598 38.815 26.7689 39.2167 25.3379 38.2436V49.7285L25.3435 51.2146H26.0933C27.3109 49.3287 29.4269 48.0312 31.6542 47.9124ZM53.1906 37.6684C53.2741 37.6005 53.3725 37.5552 53.4764 37.5288C53.4894 37.5251 53.5024 37.5175 53.5173 37.5137L53.5024 37.5213C53.8347 37.4477 54.2189 37.5797 54.4045 37.8758C54.6514 38.2719 54.4862 38.8697 54.0723 39.0771C53.6583 39.2846 53.0904 39.0526 52.9326 38.6113C52.8064 38.2568 52.9716 37.8381 53.2741 37.6288L53.1906 37.6684Z" fill="#FAFAFA"/>
<path d="M58.3525 39.1695C57.7808 38.6923 56.797 38.813 56.1177 39.2279C55.3251 39.7107 54.7052 40.4764 53.8514 40.8384C51.7447 41.7305 49.2557 39.8238 47.1193 40.6404C45.4488 41.2779 44.543 43.407 42.7834 43.7087C41.8238 43.8728 40.8717 43.4315 39.9046 43.3165C38.6165 43.1637 37.2708 43.6276 36.3409 44.5461C35.411 45.4645 34.9154 46.8185 35.0286 48.1311L35.7581 48.3272C36.8179 48.4517 37.8629 48.4743 38.8689 48.1292C41.7682 47.1335 43.3477 43.3825 46.388 43.0242C48.0733 42.8262 49.7587 43.7785 51.431 43.49C52.7878 43.2542 53.87 42.2547 54.991 41.4438C56.0936 40.6461 57.1942 39.8861 58.4471 40.3519V39.26C58.4174 39.226 58.3859 39.1959 58.3525 39.1695Z" fill="#E8505B"/>
<path d="M54.9928 41.442C53.8717 42.2529 52.7896 43.2543 51.4328 43.4881C49.7605 43.7785 48.0751 42.8243 46.3898 43.0223C43.3495 43.3787 41.7699 47.1297 38.8707 48.1274C37.8647 48.4725 36.8197 48.4498 35.7599 48.3254C34.4012 48.167 33.0165 47.8407 31.656 47.9124C29.4268 48.0293 27.3127 49.3268 26.0933 51.2164H26.832C27.5429 50.4658 28.4821 49.9472 29.5048 49.6926C30.9878 49.3249 32.623 49.6455 33.8648 50.5469C34.1506 50.7544 34.4179 50.9901 34.6889 51.224L40.2238 51.2296C40.4688 51.0901 40.7138 50.9505 40.9644 50.8204C41.9667 50.3037 43.1119 49.9453 44.2107 50.1811C44.8863 50.3263 45.5248 50.7016 45.9053 51.2353L51.83 51.2409C52.0268 50.8411 52.3664 50.5149 52.7878 50.3847C53.2351 50.2471 53.7511 50.298 54.1316 50.0245C54.5771 49.7058 54.6606 49.0873 54.8406 48.5668C55.3436 47.1203 56.9677 46.183 58.4489 46.4678V40.3463C57.196 39.8842 56.0954 40.6423 54.9928 41.442ZM49.7549 50.0302C48.812 50.5017 47.5201 49.9736 47.1638 48.9685C46.8835 48.1764 47.2362 47.2372 47.9006 46.7526L47.754 46.8223C47.9192 46.6903 48.1048 46.5942 48.3016 46.5319C48.3647 46.5074 48.4278 46.4885 48.4946 46.4716L48.4612 46.4867C49.2185 46.3188 50.0909 46.6206 50.5122 47.2938C51.0727 48.1971 50.6978 49.5587 49.7549 50.0302ZM56.3274 43.2015C56.0749 43.3278 55.7278 43.1864 55.6332 42.9167C55.5571 42.6998 55.6573 42.4452 55.8411 42.3189L55.7909 42.3434C55.8429 42.3019 55.9023 42.2755 55.9654 42.2585C55.9728 42.2566 55.9821 42.251 55.9896 42.2491L55.9803 42.2529C56.1826 42.2076 56.4165 42.2887 56.5297 42.4698C56.6819 42.7111 56.5798 43.0751 56.3274 43.2015Z" fill="#15406A"/>
<path d="M54.8387 48.5706C54.6568 49.0911 54.5733 49.7097 54.1297 50.0284C53.7473 50.3018 53.2313 50.249 52.7859 50.3886C52.3645 50.5187 52.0249 50.8468 51.8281 51.2448L58.4488 51.2523V46.4716C56.9658 46.1868 55.3436 47.1241 54.8387 48.5706Z" fill="#15406A"/>
<path d="M29.5029 49.6945C28.4802 49.9472 27.5428 50.4677 26.8301 51.2183L34.687 51.2258C34.4178 50.992 34.1487 50.7544 33.8629 50.5488C32.6193 49.6474 30.9859 49.3268 29.5029 49.6945Z" fill="#15406A"/>
<path d="M44.2069 50.1849C43.1062 49.9472 41.9629 50.3074 40.9606 50.8242C40.71 50.9524 40.465 51.092 40.22 51.2334L45.9015 51.2391C45.521 50.7054 44.8825 50.3301 44.2069 50.1849Z" fill="#15406A"/>
<path d="M41.9129 31.7335C40.9236 31.8089 39.8675 31.6354 38.9877 32.1012C38.2007 32.518 37.7219 33.3666 37.0759 33.9795C37.1298 33.9984 37.1836 34.0192 37.2374 34.0361C38.8763 34.5189 40.6452 34.3152 42.2879 33.8457C44.1069 33.3252 45.9258 32.4746 47.8005 32.7179C49.1183 32.8895 50.3025 33.5892 51.4533 34.2605C52.6041 34.9319 53.8087 35.6071 55.134 35.7183C56.3831 35.8239 57.7678 35.2865 58.332 34.1795V33.7476V30.0626L44.1236 30.0551C44.053 31.0489 42.8967 31.6599 41.9129 31.7335Z" fill="#15406A"/>
<path d="M52.9307 38.6112C53.0866 39.0525 53.6545 39.2845 54.0703 39.077C54.4842 38.8696 54.6494 38.2718 54.4026 37.8757C54.2169 37.5797 53.8346 37.4477 53.5005 37.5212L53.5153 37.5137C53.5005 37.5174 53.4894 37.525 53.4745 37.5287C53.3706 37.5551 53.274 37.6004 53.1887 37.6683L53.2703 37.6287C52.9715 37.838 52.8063 38.2567 52.9307 38.6112Z" fill="#E8505B"/>
<path d="M48.4593 46.4886L48.4927 46.4735C48.4259 46.4886 48.3627 46.5093 48.2996 46.5338C48.1029 46.596 47.9154 46.6922 47.7521 46.8242L47.8987 46.7545C47.2361 47.2372 46.8816 48.1783 47.1618 48.9704C47.5182 49.9755 48.8101 50.5036 49.753 50.0321C50.6959 49.5606 51.0727 48.199 50.5084 47.2976C50.0889 46.6224 49.2166 46.3207 48.4593 46.4886Z" fill="#E8505B"/>
<g opacity="0.3">
<g opacity="0.3">
<path opacity="0.3" d="M48.4593 46.4886L48.4927 46.4735C48.4259 46.4886 48.3627 46.5093 48.2996 46.5338C48.1029 46.596 47.9154 46.6922 47.7521 46.8242L47.8987 46.7545C47.2361 47.2372 46.8816 48.1783 47.1618 48.9704C47.5182 49.9755 48.8101 50.5036 49.753 50.0321C50.6959 49.5606 51.0727 48.199 50.5084 47.2976C50.0889 46.6224 49.2166 46.3207 48.4593 46.4886Z" fill="white"/>
</g>
</g>
<path d="M56.5296 42.4698C56.4164 42.2888 56.1825 42.2096 55.9802 42.253L55.9894 42.2492C55.9802 42.2511 55.9727 42.2548 55.9653 42.2586C55.9022 42.2756 55.8428 42.302 55.7908 42.3435L55.841 42.319C55.6572 42.4453 55.557 42.7018 55.6331 42.9168C55.7277 43.1865 56.0748 43.3279 56.3273 43.2016C56.5797 43.0752 56.6818 42.7112 56.5296 42.4698Z" fill="#E8505B"/>
<path d="M30.2936 37.4289C30.8542 36.6764 31.1196 35.6693 31.8824 35.1319C33.1557 34.2342 35.0174 35.1545 36.4132 34.468C36.6693 34.3417 36.8902 34.1701 37.0962 33.9739C37.7403 33.361 38.2192 32.5124 39.008 32.0956C39.8878 31.6298 40.944 31.8033 41.9333 31.7279C42.917 31.6543 44.0529 31.049 44.1235 30.0551C44.1235 30.0494 44.1235 30.0608 44.1235 30.0551H38.8484H25.271L25.2988 38.2209C25.3118 38.2303 25.3248 38.236 25.3378 38.2454C26.7689 39.2185 29.2598 38.8169 30.2936 37.4289Z" fill="#E8505B"/>
<g opacity="0.3">
<g opacity="0.3">
<path opacity="0.3" d="M58.3525 39.1695C57.7808 38.6923 56.797 38.813 56.1177 39.2279C55.3251 39.7107 54.7052 40.4764 53.8514 40.8384C51.7447 41.7305 49.2557 39.8238 47.1193 40.6404C45.4488 41.2779 44.543 43.407 42.7834 43.7087C41.8238 43.8728 40.8717 43.4315 39.9046 43.3165C38.6165 43.1637 37.2708 43.6276 36.3409 44.5461C35.411 45.4645 34.9154 46.8185 35.0286 48.1311L35.7581 48.3272C36.8179 48.4517 37.8629 48.4743 38.8689 48.1292C41.7682 47.1335 43.3477 43.3825 46.388 43.0242C48.0733 42.8262 49.7587 43.7785 51.431 43.49C52.7878 43.2542 53.87 42.2547 54.991 41.4438C56.0936 40.6461 57.1942 39.8861 58.4471 40.3519V39.26C58.4174 39.226 58.3859 39.1959 58.3525 39.1695Z" fill="white"/>
</g>
</g>
<g opacity="0.3">
<g opacity="0.3">
<path opacity="0.3" d="M38.8484 30.0552H25.271L25.2988 38.221C25.3118 38.2304 25.3248 38.2361 25.3378 38.2455C26.7689 39.2186 29.2598 38.8169 30.2936 37.4289C30.8542 36.6765 31.1196 35.6694 31.8824 35.1319C33.1557 34.2343 35.0174 35.1546 36.4132 34.4681C36.6693 34.3418 36.8902 34.1701 37.0962 33.974C37.7403 33.3611 38.2192 32.5125 39.008 32.0957C39.8878 31.6299 40.944 31.8034 41.9333 31.7279C42.917 31.6544 44.0529 31.049 44.1235 30.0552" fill="white"/>
</g>
</g>
<path d="M49.2574 39.9521C49.1961 39.7107 48.7581 37.9757 47.9544 34.7905L47.9693 34.7999C44.4278 35.7164 39.2196 37.061 33.4267 38.5603L33.4415 38.5358C33.8907 40.3349 34.3269 42.0775 34.7315 43.7012L34.7092 43.688C43.0617 41.5419 48.8268 40.0633 49.2574 39.9521C48.8268 40.0633 43.0654 41.5588 34.7167 43.7238L34.6981 43.7276L34.6944 43.7087C34.2879 42.085 33.8517 40.3425 33.4025 38.5433L33.397 38.5245L33.4155 38.5188C39.2103 37.0252 44.4185 35.6844 47.9618 34.7716L47.9748 34.7678L47.9785 34.781C48.7674 37.9738 49.198 39.7107 49.2574 39.9521Z" fill="#263238"/>
<path d="M49.3831 39.6599L49.0071 39.757L49.1026 40.139L49.4786 40.0419L49.3831 39.6599Z" fill="#455A64"/>
<path d="M34.8513 43.4661L34.4753 43.5631L34.5708 43.9451L34.9468 43.8481L34.8513 43.4661Z" fill="#455A64"/>
<path d="M48.0872 34.4738L47.7112 34.5708L47.8067 34.9528L48.1827 34.8558L48.0872 34.4738Z" fill="#455A64"/>
<path d="M40.7556 36.3654L40.3796 36.4624L40.4751 36.8444L40.8511 36.7474L40.7556 36.3654Z" fill="#455A64"/>
<path d="M42.0513 41.5515L41.6753 41.6486L41.7708 42.0306L42.1468 41.9335L42.0513 41.5515Z" fill="#455A64"/>
<path d="M34.1834 40.7954L33.8074 40.8925L33.9029 41.2745L34.2789 41.1774L34.1834 40.7954Z" fill="#455A64"/>
<path d="M48.7307 37.0396L48.3547 37.1366L48.4502 37.5186L48.8262 37.4216L48.7307 37.0396Z" fill="#455A64"/>
<path d="M33.5596 38.3008L33.1836 38.3978L33.2791 38.7798L33.6551 38.6828L33.5596 38.3008Z" fill="#455A64"/>
<path d="M36.9922 38.9903L35.9453 39.26L35.8191 38.7564L38.4993 38.0643L38.6255 38.5679L37.5787 38.8375L38.2543 41.5419L37.6678 41.6927L36.9922 38.9903Z" fill="#263238"/>
<path d="M41.4394 39.6144L39.548 40.1029C39.7058 40.4423 40.0566 40.597 40.476 40.4876C40.747 40.4178 40.9364 40.2764 41.0644 40.052L41.4542 40.3273C41.3039 40.6441 40.9995 40.8704 40.5837 40.976C39.7763 41.1854 39.1211 40.7931 38.9392 40.0633C38.7573 39.3334 39.1545 38.6753 39.8709 38.4905C40.5744 38.3094 41.2148 38.6753 41.4059 39.4409C41.4171 39.4881 41.4301 39.5579 41.4394 39.6144ZM39.4496 39.7219L40.8176 39.3693C40.6839 39.0279 40.3572 38.8544 39.9879 38.9487C39.6204 39.0449 39.4143 39.3504 39.4496 39.7219Z" fill="#263238"/>
<path d="M43.7168 40.135L42.8871 39.4467L42.4769 40.4556L41.8551 40.6159L42.4825 39.1318L41.2834 38.1568L41.9108 37.9946L42.7015 38.6452L43.0913 37.691L43.7001 37.5344L43.0969 38.9639L44.3534 39.9729L43.7168 40.135Z" fill="#263238"/>
<path d="M46.1853 39.3561C46.0777 39.5013 45.8884 39.6088 45.6842 39.6616C45.157 39.7974 44.7821 39.5919 44.6485 39.0506L44.3534 37.872L43.9561 37.9738L43.8411 37.5155L44.2383 37.4137L44.0991 36.8536L44.6633 36.7084L44.8025 37.2685L45.4485 37.1025L45.5635 37.5608L44.9176 37.7267L45.209 38.8922C45.2684 39.1298 45.4188 39.2298 45.6341 39.1732C45.751 39.143 45.8568 39.0827 45.9255 38.9903L46.1853 39.3561Z" fill="#263238"/>
<path d="M48.9641 38.7828C48.966 38.7941 45.7122 39.6428 41.6975 40.6781C37.6809 41.7154 34.4234 42.547 34.4197 42.5357C34.4178 42.5244 37.6697 41.6758 41.6882 40.6404C45.7029 39.6032 48.9623 38.7715 48.9641 38.7828Z" fill="#263238"/>
<path d="M79.3097 38.9074C79.3042 38.898 79.4322 38.8546 79.6012 38.6755C79.7701 38.502 79.9464 38.1569 79.9612 37.6873C79.9668 37.4553 79.9334 37.1894 79.8146 36.931C79.6995 36.6746 79.4954 36.4294 79.2225 36.2503C78.6787 35.8806 77.8546 35.809 77.0954 36.1409C76.3233 36.4539 75.6328 37.0763 74.8737 37.6986C74.4894 38.0079 74.0774 38.3172 73.6004 38.5454C73.1215 38.7698 72.5832 38.8961 72.0264 38.9056C70.9183 38.915 69.7341 38.4511 68.923 37.527C68.5146 37.0744 68.2047 36.5105 68.0543 35.8919C67.9095 35.279 67.93 34.5794 68.2678 34.0061C68.433 33.7232 68.6576 33.4743 68.9285 33.2989C69.1958 33.1178 69.5188 33.0179 69.8399 33.0311C70.161 33.0518 70.4673 33.2008 70.69 33.4252C70.9127 33.6534 71.0556 33.9419 71.1392 34.2399C71.3025 34.8358 71.2468 35.4884 70.9517 36.0107C70.6547 36.5294 70.161 36.8952 69.6357 37.08C69.1067 37.2667 68.5481 37.295 68.0283 37.2045C67.5086 37.1121 67.0298 36.9197 66.5899 36.6972C65.7101 36.2465 64.975 35.692 64.2567 35.2696C63.544 34.8396 62.8461 34.5322 62.1965 34.4285C61.5468 34.3229 60.9696 34.421 60.5427 34.5982C60.112 34.7736 59.8299 35.0131 59.6629 35.1942C59.622 35.2394 59.5868 35.2809 59.5552 35.3149C59.5274 35.3507 59.5033 35.3827 59.4847 35.4092C59.4457 35.4601 59.4253 35.4846 59.4253 35.4846C59.4253 35.4846 59.442 35.4563 59.4773 35.4035C59.4958 35.3771 59.5181 35.3431 59.5441 35.3054C59.5756 35.2696 59.609 35.2262 59.6499 35.1791C59.8132 34.9943 60.0953 34.7453 60.5297 34.5624C60.9603 34.3795 61.545 34.2739 62.2057 34.3738C62.8665 34.4738 63.5755 34.7812 64.292 35.2092C65.0159 35.6317 65.7528 36.1824 66.6251 36.6237C67.0613 36.8424 67.5328 37.031 68.0432 37.1178C68.5499 37.2045 69.0956 37.1762 69.6079 36.9933C70.1183 36.8141 70.5916 36.4596 70.8737 35.9617C71.1522 35.4657 71.2079 34.8358 71.0501 34.2644C70.9684 33.9797 70.8329 33.7043 70.6232 33.4912C70.4134 33.2819 70.1332 33.1461 69.8362 33.1254C69.5392 33.114 69.2367 33.2046 68.9824 33.3781C68.7244 33.544 68.5109 33.7816 68.3532 34.0532C68.0321 34.5982 68.0098 35.2715 68.1508 35.8674C68.2975 36.4671 68.5982 37.0197 68.9972 37.461C69.7879 38.3643 70.9461 38.8207 72.0301 38.8131C72.5739 38.8056 73.1011 38.683 73.5688 38.4643C74.0366 38.2417 74.4449 37.9381 74.8291 37.6307C75.5883 37.014 76.2862 36.386 77.075 36.0711C77.8508 35.7373 78.6991 35.8146 79.2578 36.1993C79.5381 36.386 79.7478 36.6387 79.8629 36.9065C79.9817 37.1743 80.0132 37.4459 80.0039 37.6816C79.9835 38.1606 79.796 38.5095 79.6216 38.683C79.5807 38.7302 79.538 38.7641 79.4991 38.7924C79.4619 38.8226 79.4304 38.8433 79.4007 38.8584C79.3394 38.8942 79.3097 38.9074 79.3097 38.9074Z" fill="#263238"/>
<g opacity="0.3">
<g opacity="0.3">
<path opacity="0.3" d="M54.8387 48.5706C54.6568 49.0911 54.5733 49.7097 54.1297 50.0284C53.7473 50.3018 53.2313 50.249 52.7859 50.3886C52.3645 50.5187 52.0249 50.8468 51.8281 51.2448L58.4488 51.2523V46.4716C56.9658 46.1868 55.3436 47.1241 54.8387 48.5706Z" fill="black"/>
</g>
</g>
<g opacity="0.3">
<g opacity="0.3">
<path opacity="0.3" d="M56.5296 42.4698C56.4164 42.2888 56.1825 42.2096 55.9802 42.253L55.9894 42.2492C55.9802 42.2511 55.9727 42.2548 55.9653 42.2586C55.9022 42.2756 55.8428 42.302 55.7908 42.3435L55.841 42.319C55.6572 42.4453 55.557 42.7018 55.6331 42.9168C55.7277 43.1865 56.0748 43.3279 56.3273 43.2016C56.5797 43.0752 56.6818 42.7112 56.5296 42.4698Z" fill="black"/>
</g>
</g>
<g opacity="0.3">
<g opacity="0.3">
<path opacity="0.3" d="M29.5029 49.6945C28.4802 49.9472 27.5428 50.4677 26.8301 51.2183L34.687 51.2258C34.4178 50.992 34.1487 50.7544 33.8629 50.5488C32.6193 49.6474 30.9859 49.3268 29.5029 49.6945Z" fill="black"/>
</g>
</g>
<g opacity="0.3">
<g opacity="0.3">
<path opacity="0.3" d="M44.2069 50.1849C43.1062 49.9472 41.9629 50.3074 40.9606 50.8242C40.71 50.9524 40.465 51.092 40.22 51.2334L45.9015 51.2391C45.521 50.7054 44.8825 50.3301 44.2069 50.1849Z" fill="black"/>
</g>
</g>
<path d="M33.8666 60.4592C34.377 59.5294 35.5538 59.2013 36.6025 59.239C37.6512 59.2748 38.6832 59.5822 39.73 59.5313C42.1244 59.4182 44.1977 57.4776 46.5939 57.5474C48.0324 57.5889 49.4356 58.3639 50.8499 58.0943C51.1915 58.0283 51.5961 57.9208 51.8467 58.1641C52.0527 58.3658 52.0286 58.7242 51.8689 58.9637C51.7093 59.2032 51.4476 59.3503 51.1933 59.4823C47.5368 61.3587 43.3049 61.5416 39.2419 62.0603C38.2024 62.1923 37.1445 62.3488 36.1125 62.1659C35.0805 61.9811 34.0559 61.387 33.6401 60.4082" fill="#E8505B"/>
<g opacity="0.5">
<g opacity="0.5">
<path opacity="0.5" d="M33.8666 60.4592C34.377 59.5294 35.5538 59.2013 36.6025 59.239C37.6512 59.2748 38.6832 59.5822 39.73 59.5313C42.1244 59.4182 44.1977 57.4776 46.5939 57.5474C48.0324 57.5889 49.4356 58.3639 50.8499 58.0943C51.1915 58.0283 51.5961 57.9208 51.8467 58.1641C52.0527 58.3658 52.0286 58.7242 51.8689 58.9637C51.7093 59.2032 51.4476 59.3503 51.1933 59.4823C47.5368 61.3587 43.3049 61.5416 39.2419 62.0603C38.2024 62.1923 37.1445 62.3488 36.1125 62.1659C35.0805 61.9811 34.0559 61.387 33.6401 60.4082" fill="black"/>
</g>
</g>
<path d="M62.7809 54.4112L56.1528 42.5339L55.6126 41.4722C55.3639 40.9838 54.885 40.6594 54.3449 40.6141L53.2758 40.5236C53.2758 40.5236 53.3538 39.2639 52.7765 39.3638C52.4034 39.4279 51.054 40.6066 51.3158 40.9536C51.5775 41.3006 52.344 40.4048 52.344 40.4048L52.6354 42.6075C52.6354 42.6075 50.603 41.4062 50.2745 41.476C49.9478 41.5458 49.933 41.9135 50.1928 42.0681C51.7464 42.9998 52.3756 44.2614 52.5259 44.6122L52.5204 44.616L57.2145 55.2692L55.6089 56.5724L57.5151 61.6359L61.5299 58.8448C63.128 58.0113 63.7015 55.9783 62.7809 54.4112Z" fill="#FFBE9D"/>
<path d="M49.3372 40.3744L49.1436 40.2719L49.1257 40.3066L49.3194 40.4091L49.3372 40.3744Z" fill="#263238"/>
<path d="M49.3168 40.3388L50.1501 40.3614L54.8906 43.0111C55.0614 43.1072 55.1264 43.3241 55.0336 43.4995C54.9408 43.6768 54.7236 43.7447 54.5491 43.6504L49.8439 41.095L49.2722 40.435C49.2407 40.3973 49.2685 40.3369 49.3168 40.3388Z" fill="#263238"/>
<path d="M54.4174 42.747L54.0815 43.4014L53.8884 43.2996L54.2281 42.6395L54.4174 42.747Z" fill="#455A64"/>
<path d="M35.3663 42.9885C35.034 42.9546 33.7756 44.0936 33.7756 44.0936L33.1538 41.8174C33.1538 41.8174 33.9872 41.8928 34.2099 41.5194C34.4345 41.146 32.1738 41.1818 32.1236 41.4345C32.0717 41.6872 32.2536 42.3737 32.2536 42.3737L31.3979 42.5415C30.6777 42.683 30.132 43.2808 30.0467 44.0201L29.9074 45.2365L29.9316 45.2459L23.309 56.4857C22.2566 58.2716 22.6167 60.5667 24.1647 61.9321L30.7984 66.7203L33.2744 61.2362L28.3706 57.9623L33.989 46.9488C33.989 46.9488 35.2549 43.7259 35.511 43.5656C35.7672 43.409 35.6985 43.0224 35.3663 42.9885Z" fill="#FFBE9D"/>
<path d="M58.5287 61.9471L58.4507 61.1645C58.3579 60.2385 57.8976 59.3899 57.1756 58.8166C56.3292 58.1452 55.8484 57.1004 55.8856 56.0104L55.8967 55.686L52.5056 57.802C52.5056 57.802 52.0137 58.1245 51.4959 58.6374L51.4884 58.6204C51.4884 58.6204 44.2422 58.7411 33.7311 60.3026L29.746 58.8392L30.0894 59.1127C30.2787 60.1876 29.9261 61.1381 29.1818 61.9264C28.547 62.5977 28.2092 63.5049 28.2482 64.4346L28.2816 65.221C28.2816 65.221 30.6592 66.7957 32.3891 67.3879C32.4114 67.3954 32.4318 67.4011 32.4522 67.4067C34.4698 68.3214 37.692 69.3661 41.6901 69.2002C48.1623 68.9324 53.4819 65.4303 54.1798 64.9532C55.8225 64.0895 58.5287 61.9471 58.5287 61.9471Z" fill="#15406A"/>
<path d="M33.7291 60.3026C33.731 60.3007 33.7551 60.3196 33.7996 60.3592C33.8442 60.3969 33.9073 60.4591 33.9871 60.5384C34.1449 60.6987 34.3676 60.94 34.5941 61.2776C34.8205 61.6133 35.0507 62.047 35.1973 62.5675C35.3439 63.0843 35.433 63.6878 35.3402 64.3101C35.2975 64.6213 35.2029 64.9155 35.0785 65.1833C34.9504 65.451 34.8019 65.6868 34.6516 65.9093C34.3472 66.3525 34.0001 66.6995 33.6604 66.922C33.3263 67.1521 33.0145 67.2634 32.8029 67.3331C32.6953 67.3671 32.6117 67.3878 32.5542 67.3991C32.4967 67.4123 32.467 67.4161 32.4651 67.4142C32.4633 67.4048 32.582 67.3746 32.7918 67.2973C32.9978 67.2181 33.3004 67.0974 33.6233 66.8654C33.95 66.641 34.2841 66.2959 34.5792 65.8584C34.7258 65.6396 34.8725 65.4001 34.995 65.1418C35.1138 64.8815 35.2029 64.5967 35.2456 64.295C35.3365 63.6915 35.253 63.1012 35.1119 62.5921C34.9709 62.081 34.7537 61.651 34.5365 61.3153C34.3194 60.9796 34.1078 60.7326 33.9593 60.5648C33.8108 60.3969 33.7235 60.3083 33.7291 60.3026Z" fill="#263238"/>
<g opacity="0.2">
<g opacity="0.2">
<path opacity="0.2" d="M52.2215 66.1168C52.7449 65.7359 52.485 64.9627 51.9022 64.6817C51.3194 64.4026 50.6326 64.5704 50.0201 64.7741C48.0434 65.4304 46.1743 66.3922 44.1994 67.0579C42.2245 67.7217 40.0658 68.0781 38.0687 67.4841C36.6784 67.0692 35.743 66.1413 34.3045 66.3073C33.6493 66.3827 33.4451 67.2295 32.4744 67.4332C32.4744 67.4332 34.2766 68.295 36.8269 68.8212C38.4343 69.1531 40.3498 69.3134 42.2579 69.1663C44.1548 69.0192 46.1112 68.5873 47.7445 68.0461C50.3579 67.1823 52.2215 66.1168 52.2215 66.1168Z" fill="black"/>
</g>
</g>
<g opacity="0.2">
<path opacity="0.2" d="M35.2974 63.071C35.2974 63.071 35.4682 61.2832 34.4083 60.2026L33.7012 60.3101C33.7012 60.3101 34.6329 60.9928 35.2974 63.071Z" fill="black"/>
</g>
<path d="M38.6663 58.3244C38.6292 58.4224 39.0245 62.5544 39.0245 62.5544C39.0245 62.5544 41.0866 65.4793 44.3293 62.6317L44.7209 58.1263L38.6663 58.3244Z" fill="#FFBE9D"/>
<g opacity="0.2">
<path opacity="0.2" d="M39.0245 62.5543C39.0245 62.5543 38.0686 60.9419 37.8032 59.7425L38.5884 59.6444L38.7814 59.8688L39.0245 62.5543Z" fill="black"/>
</g>
<path d="M56.0599 63.7254C56.0618 63.7292 56.0339 63.7481 55.9801 63.782C55.9263 63.816 55.8465 63.865 55.7407 63.9216C55.5291 64.0347 55.2135 64.1969 54.7904 64.2931C54.5788 64.3402 54.3412 64.3704 54.085 64.3515C53.8307 64.3289 53.5616 64.2761 53.2906 64.1818C52.7486 63.9951 52.1974 63.6406 51.7649 63.1276C51.5496 62.873 51.3751 62.592 51.247 62.3016C51.1208 62.0093 51.0317 61.7208 50.9575 61.4416C50.8164 60.8797 50.7774 60.3478 50.8443 59.9122C50.9037 59.4747 51.0689 59.1465 51.2006 58.9448C51.2656 58.841 51.3269 58.7694 51.3714 58.7222C51.4141 58.6751 51.4364 58.6506 51.4401 58.6524C51.4419 58.6543 51.4234 58.6826 51.3863 58.7354C51.3473 58.7863 51.2916 58.8599 51.2322 58.9655C51.1115 59.1711 50.9612 59.4935 50.9111 59.9216C50.8536 60.3478 50.9 60.8665 51.0429 61.419C51.1171 61.6925 51.2081 61.981 51.3324 62.2639C51.4586 62.5449 51.6275 62.8164 51.8373 63.0654C52.6837 64.0687 53.9588 64.4289 54.7755 64.2271C55.1913 64.1403 55.5068 63.9895 55.7221 63.8895C55.9393 63.782 56.0562 63.7179 56.0599 63.7254Z" fill="#263238"/>
<path d="M51.4401 62.6807C51.4401 62.6825 51.429 62.6901 51.403 62.7052C51.3733 62.7221 51.3361 62.7429 51.2916 62.7693C51.1858 62.8278 51.041 62.907 50.8573 63.0069C50.6698 63.1106 50.4378 63.2351 50.1612 63.3615C49.8847 63.4897 49.5766 63.6519 49.2202 63.7933C48.8675 63.9423 48.4815 64.1083 48.0546 64.2554C47.6332 64.4175 47.1729 64.559 46.6885 64.7099C45.7159 64.9927 44.6282 65.2454 43.4718 65.4171C42.3136 65.5811 41.2 65.6471 40.1884 65.6566C39.936 65.6547 39.6891 65.6528 39.4496 65.649C39.2102 65.649 38.9782 65.6283 38.7536 65.6188C38.3044 65.6019 37.8868 65.5585 37.5063 65.5227C37.124 65.4925 36.7824 65.434 36.4817 65.3963C36.1792 65.3586 35.923 65.3114 35.7115 65.2737C35.5073 65.236 35.3458 65.2058 35.227 65.1832C35.1769 65.1719 35.1361 65.1644 35.1008 65.1568C35.073 65.1511 35.0581 65.1455 35.0581 65.1455C35.0581 65.1436 35.073 65.1455 35.1027 65.1474C35.1379 65.1512 35.1788 65.1568 35.2289 65.1644C35.3477 65.1813 35.511 65.2058 35.7152 65.236C35.9268 65.27 36.1848 65.3114 36.4855 65.3435C36.7861 65.3756 37.1277 65.4303 37.51 65.4548C37.8905 65.4868 38.3063 65.5264 38.7555 65.5378C38.9801 65.5453 39.2121 65.5642 39.4496 65.5623C39.6891 65.5623 39.9341 65.5642 40.1865 65.5642C41.1944 65.5491 42.3025 65.4812 43.457 65.3171C44.6078 65.1455 45.6917 64.8966 46.6625 64.6212C47.1451 64.4741 47.6054 64.3365 48.0249 64.1762C48.4499 64.0328 48.8378 63.8706 49.1905 63.7254C49.5469 63.5878 49.8568 63.4312 50.1352 63.3087C50.4137 63.1861 50.6475 63.0673 50.8369 62.9692C51.0225 62.8768 51.171 62.8032 51.2786 62.7486C51.325 62.7259 51.364 62.7089 51.3955 62.6939C51.4252 62.6844 51.4382 62.6788 51.4401 62.6807Z" fill="#263238"/>
<g opacity="0.2">
<g opacity="0.2">
<path opacity="0.2" d="M40.8493 63.7122C40.6971 64.1139 40.7527 64.5892 40.9959 64.9418C41.239 65.2945 41.6604 65.5132 42.0836 65.5038C42.2766 65.5 42.4771 65.4548 42.6571 65.5246C42.8743 65.6113 42.9949 65.8395 43.1378 66.0262C43.5666 66.5844 44.3499 66.8315 45.0144 66.6165C45.6788 66.4015 46.1763 65.7395 46.2078 65.0323C46.2134 64.8984 46.2097 64.7495 46.2951 64.6457C46.4807 64.427 46.8148 64.6401 47.0672 64.7721C47.7076 65.1115 48.5688 64.7721 48.9215 64.1328C49.2741 63.4935 49.1627 62.6561 48.7581 62.0489C48.3516 61.4416 47.6927 61.0456 47.0022 60.8306C46.5586 60.693 46.0742 60.61 45.7271 60.2988C45.2278 59.8481 45.1814 59.0843 45.1721 58.4054" fill="black"/>
</g>
</g>
<path d="M46.128 50.8865C46.5808 51.8973 46.8184 52.48 46.8871 53.5569C47.0133 55.5182 46.579 57.1325 45.5229 58.7788C45.5154 58.7902 45.5303 58.7675 45.5229 58.7788C44.7507 59.9745 42.438 61.4662 41.7531 61.6661C41.0682 61.8679 38.3453 60.1442 37.794 58.2074C37.2428 56.2688 36.5356 55.0939 37.4729 51.7087C38.4344 48.2387 43.0338 48.1143 43.0338 48.1143C43.0338 48.1143 46.1242 48.1161 46.6885 49.936C47.2546 51.7559 46.128 50.8865 46.128 50.8865Z" fill="#263238"/>
<path d="M41.2613 54.7732C40.5022 54.8487 39.7987 55.356 39.4776 56.0575C39.1565 56.759 39.2271 57.6322 39.6595 58.2715C40.0419 58.8354 40.6692 59.2144 40.9644 59.8292C41.2354 60.3931 41.1778 61.0607 41.0498 61.6755C40.9198 62.2903 40.7231 62.8975 40.7324 63.5255C40.7416 64.1535 41.0108 64.8287 41.5713 65.0965C42.13 65.3643 42.9467 64.989 42.9504 64.361C42.7629 65.3548 43.8914 66.3317 44.8269 65.9828C45.7624 65.6358 46.0074 64.1517 45.2334 63.5123C45.9183 63.6764 46.6849 63.6745 47.2714 63.2804C47.8579 62.8862 48.1549 62.0093 47.7559 61.4209C47.2826 60.725 46.206 60.7891 45.6083 60.1989C45.1146 59.7123 45.0886 58.9334 45.0515 58.2357C44.9995 57.2324 44.8511 56.2027 44.348 55.3371C43.845 54.4715 42.9133 53.8039 41.9258 53.8737" fill="#263238"/>
<path d="M43.0357 64.3195C43.0338 64.3233 43.0004 64.3063 42.9373 64.2724C42.9058 64.2573 42.8668 64.2347 42.8241 64.2026C42.7796 64.1743 42.7313 64.1385 42.6793 64.0932C42.4677 63.9235 42.2023 63.6067 42.026 63.1427C41.9387 62.9127 41.8701 62.6468 41.8404 62.3582C41.8125 62.0678 41.8218 61.7547 41.8682 61.4323C41.9592 60.7835 42.2023 60.1065 42.4659 59.4125C42.7313 58.7185 42.9689 58.0471 43.058 57.4116C43.1044 57.0948 43.1137 56.7892 43.0858 56.5064C43.058 56.2235 42.9912 55.9651 42.9058 55.7407C42.735 55.2881 42.4807 54.9769 42.2766 54.8053C42.0724 54.6299 41.9332 54.5677 41.9387 54.5583C41.9406 54.5545 41.974 54.5715 42.039 54.6035C42.0724 54.6186 42.1095 54.6412 42.154 54.6695C42.1986 54.6978 42.2487 54.7318 42.3007 54.7751C42.516 54.9411 42.7851 55.2541 42.9689 55.7143C43.0598 55.9444 43.1322 56.2084 43.1638 56.4969C43.1953 56.7874 43.1879 57.1004 43.1434 57.4229C43.058 58.0716 42.8167 58.7505 42.5531 59.4464C42.2877 60.1404 42.0464 60.8099 41.9517 61.4455C41.9035 61.7623 41.8905 62.0678 41.9146 62.3507C41.9387 62.6336 42.0018 62.8919 42.0835 63.1201C42.2487 63.5746 42.4974 63.8895 42.6979 64.0649C42.9039 64.2441 43.0413 64.3082 43.0357 64.3195Z" fill="#FAFAFA"/>
<path d="M45.8273 63.5651C45.8273 63.5689 45.7883 63.5783 45.7122 63.5915C45.6361 63.6029 45.521 63.6142 45.3744 63.6066C45.0848 63.5934 44.6393 63.5029 44.2217 63.1616C44.0157 62.99 43.8264 62.758 43.6909 62.4694C43.5572 62.1828 43.4756 61.8415 43.496 61.4813C43.5145 61.1229 43.6241 60.7609 43.7558 60.4025C43.8895 60.0442 44.0417 59.6821 44.1419 59.2936C44.3498 58.5186 44.3702 57.734 44.231 57.0551C44.0955 56.3724 43.7967 55.8067 43.47 55.3993C43.1452 54.9882 42.7999 54.7336 42.5512 54.5827C42.3007 54.4319 42.1485 54.3753 42.1522 54.3659C42.154 54.3621 42.1911 54.3753 42.2635 54.4036C42.3359 54.43 42.4399 54.479 42.5698 54.5488C42.8259 54.6921 43.1842 54.9411 43.522 55.3559C43.8598 55.7652 44.1735 56.3404 44.3164 57.0363C44.4649 57.7303 44.4445 58.5299 44.2329 59.3182C44.1289 59.7142 43.973 60.08 43.8412 60.4346C43.7094 60.7891 43.6018 61.1399 43.5814 61.485C43.5387 62.1771 43.8728 62.7768 44.2626 63.105C44.6598 63.4407 45.0904 63.5406 45.3744 63.5651C45.6658 63.5915 45.8254 63.5538 45.8273 63.5651Z" fill="#455A64"/>
<path d="M43.0208 54.083C43.0078 54.0943 42.915 53.9548 42.6941 53.8265C42.4806 53.6983 42.1131 53.6002 41.753 53.7341C41.3948 53.8737 41.1795 54.1924 41.1016 54.43C41.018 54.6733 41.0384 54.8411 41.0217 54.8411C41.0162 54.8411 41.005 54.8015 40.9995 54.7261C40.9939 54.6507 41.0013 54.5394 41.0366 54.4093C41.1034 54.1509 41.3224 53.7945 41.7196 53.6417C42.1187 53.4946 42.5141 53.6172 42.7312 53.7681C42.8426 53.8435 42.9187 53.9227 42.9632 53.9831C43.0078 54.0415 43.0245 54.0811 43.0208 54.083Z" fill="#E8505B"/>
<path d="M41.2539 61.7793C41.2521 61.7812 41.228 61.7642 41.1871 61.7265C41.1463 61.6907 41.085 61.6322 41.0145 61.5549C40.8716 61.3984 40.6785 61.1551 40.5096 60.8119C40.3445 60.4705 40.1867 60.0292 40.1793 59.5144C40.1774 59.2598 40.2201 58.9845 40.3407 58.7299C40.4632 58.4734 40.6581 58.2603 40.8456 58.0453C41.0331 57.8303 41.2075 57.6097 41.2818 57.3588C41.3579 57.108 41.3245 56.8459 41.2577 56.6102C41.1203 56.1387 40.8753 55.7408 40.8289 55.3485C40.7714 54.9657 40.8475 54.6394 40.9811 54.4659C41.0442 54.3773 41.111 54.3264 41.1593 54.2962C41.2075 54.2698 41.2354 54.2566 41.2354 54.2585C41.2447 54.2698 41.124 54.3113 41.0126 54.4867C40.8957 54.6564 40.8326 54.9695 40.8976 55.3372C40.9477 55.7106 41.1945 56.0953 41.343 56.5838C41.4154 56.8252 41.4563 57.1099 41.3727 57.3853C41.2929 57.6625 41.1055 57.8944 40.918 58.1094C40.7287 58.3263 40.5412 58.5337 40.4261 58.7714C40.311 59.009 40.2683 59.2674 40.2683 59.5125C40.2702 60.0066 40.4168 60.4422 40.5709 60.7798C40.7305 61.1193 40.9106 61.3663 41.0442 61.5285C41.176 61.6926 41.2595 61.7737 41.2539 61.7793Z" fill="#455A64"/>
<path d="M45.1832 59.8481C45.1757 59.8481 45.1832 59.7519 45.1943 59.5784C45.2073 59.4049 45.224 59.156 45.2314 58.8467C45.2444 58.2319 45.2147 57.3625 44.8992 56.4781C44.5799 55.5955 43.999 54.9354 43.4978 54.5978C42.9948 54.2508 42.6106 54.1848 42.618 54.1622C42.618 54.1584 42.6422 54.1622 42.6867 54.1716C42.7294 54.183 42.7962 54.1924 42.8779 54.2226C43.0431 54.2716 43.2751 54.3715 43.5349 54.5394C44.0565 54.8694 44.6635 55.5389 44.9901 56.4441C45.3131 57.3474 45.3317 58.2319 45.3001 58.8486C45.2834 59.1598 45.2556 59.4106 45.2314 59.5822C45.2091 59.7538 45.1887 59.8481 45.1832 59.8481Z" fill="#455A64"/>
<path d="M43.4979 54.5299C43.483 54.5281 43.4942 54.3583 43.5053 54.0868C43.5109 53.8171 43.5164 53.4324 43.3512 53.0609C43.1916 52.6837 42.8594 52.4762 42.6107 52.4083C42.3564 52.3367 42.1875 52.3687 42.1856 52.3499C42.1819 52.3423 42.3527 52.2839 42.6274 52.3405C42.7629 52.3706 42.9206 52.4329 43.0691 52.5441C43.2195 52.6554 43.3531 52.8214 43.4403 53.0194C43.6167 53.4192 43.5981 53.8209 43.574 54.0905C43.5443 54.364 43.509 54.5299 43.4979 54.5299Z" fill="#455A64"/>
<path d="M43.7968 51.0241C43.7894 51.0373 43.6984 50.9826 43.5406 50.926C43.3847 50.8695 43.1583 50.8185 42.9077 50.8412C42.6571 50.8638 42.4437 50.9524 42.2989 51.0354C42.1541 51.1184 42.0743 51.1882 42.065 51.1769C42.0576 51.1693 42.1207 51.0788 42.2636 50.977C42.4047 50.8751 42.6312 50.7676 42.9003 50.7431C43.1694 50.7186 43.4107 50.7846 43.5666 50.8619C43.7263 50.9374 43.8042 51.0147 43.7968 51.0241Z" fill="#F5F5F5"/>
<path d="M46.0351 51.0166C46.0203 51.0298 45.8848 50.7978 45.56 50.5357C45.2426 50.2754 44.7062 50.0039 44.0769 50.0095C43.4477 50.019 42.9169 50.3056 42.6069 50.5734C42.2895 50.8431 42.1614 51.0769 42.1447 51.0656C42.1392 51.0618 42.167 51.0034 42.232 50.9034C42.2969 50.8035 42.4046 50.6677 42.5605 50.5225C42.8668 50.2339 43.4143 49.9228 44.0751 49.9133C44.734 49.9058 45.289 50.2019 45.6027 50.4829C45.7623 50.6243 45.8737 50.7582 45.9423 50.8563C46.011 50.9543 46.0407 51.0128 46.0351 51.0166Z" fill="#455A64"/>
<path d="M44.9884 48.367C44.9903 48.3839 44.749 48.399 44.3833 48.5103C44.0177 48.6197 43.5276 48.8497 43.1007 49.2514C42.6738 49.655 42.4121 50.1359 42.2766 50.4961C42.1393 50.8601 42.1077 51.1033 42.091 51.0996C42.0855 51.0996 42.0873 51.0373 42.1022 50.928C42.117 50.8186 42.1504 50.6621 42.2117 50.4735C42.3323 50.0982 42.5922 49.5965 43.0339 49.1798C43.4757 48.763 43.988 48.5367 44.3648 48.4424C44.5541 48.3934 44.7118 48.3726 44.8195 48.3651C44.929 48.3575 44.9884 48.3613 44.9884 48.367Z" fill="#F5F5F5"/>
<path d="M42.0797 48.3462C42.0927 48.3575 41.9776 48.4801 41.8514 48.7158C41.7252 48.9478 41.599 49.3042 41.6027 49.7116C41.6064 50.117 41.74 50.4716 41.87 50.7017C41.9999 50.9336 42.1168 51.0562 42.1038 51.0675C42.0983 51.0751 41.9609 50.9694 41.8106 50.7375C41.6602 50.5093 41.5099 50.1397 41.5062 49.7116C41.5025 49.2835 41.6472 48.912 41.792 48.68C41.9386 48.4462 42.0741 48.3387 42.0797 48.3462Z" fill="#455A64"/>
<path d="M39.5203 49.0477C39.5389 49.0459 39.537 49.2476 39.6632 49.5324C39.7839 49.8172 40.0549 50.1698 40.4521 50.4225C40.8512 50.6753 41.2669 50.8016 41.5658 50.8884C41.8664 50.9751 42.0539 51.0241 42.0502 51.0392C42.0483 51.0505 41.8553 51.026 41.549 50.9562C41.2446 50.8846 40.8159 50.7677 40.402 50.5055C39.9862 50.2415 39.7115 49.8643 39.602 49.5588C39.5463 49.4061 39.5222 49.2759 39.5166 49.1873C39.5073 49.0987 39.5148 49.0477 39.5203 49.0477Z" fill="#455A64"/>
<path d="M40.9327 57.2927C40.9309 57.2965 40.9012 57.289 40.8418 57.2701C40.7824 57.255 40.697 57.223 40.5893 57.1796C40.374 57.0909 40.0696 56.9325 39.7429 56.6647C39.4218 56.3951 39.0785 56.0085 38.8446 55.4936C38.607 54.9825 38.5142 54.3395 38.6293 53.6964C38.7481 53.0552 39.0692 52.4838 39.4961 52.1179C39.923 51.7483 40.413 51.571 40.8269 51.5125C41.2445 51.4578 41.5879 51.5107 41.8107 51.5804C41.922 51.6163 42.0074 51.6483 42.0612 51.6766C42.1169 51.703 42.1448 51.7181 42.1448 51.7219C42.141 51.7332 42.0241 51.6747 41.8014 51.6181C41.5786 51.5616 41.2427 51.5201 40.8381 51.5823C40.4371 51.6483 39.962 51.8275 39.5555 52.1877C39.1471 52.5441 38.839 53.0948 38.7239 53.7171C38.6126 54.3395 38.6998 54.9618 38.9244 55.4597C39.1453 55.9613 39.4757 56.3441 39.7856 56.6138C40.0993 56.8835 40.3944 57.0476 40.6023 57.1475C40.8139 57.2456 40.9364 57.2833 40.9327 57.2927Z" fill="#455A64"/>
<path d="M40.6858 59.2843C40.684 59.2881 40.645 59.2692 40.5708 59.2296C40.4965 59.1919 40.387 59.1334 40.2515 59.0486C39.9805 58.8826 39.5982 58.6148 39.1861 58.2131C38.7796 57.8095 38.3397 57.2721 37.9889 56.5932C37.8126 56.2556 37.6585 55.8822 37.536 55.4843C37.4191 55.0845 37.3356 54.6545 37.3467 54.2075C37.3541 53.7606 37.4729 53.3268 37.6697 52.9572C37.8646 52.5838 38.13 52.2726 38.4158 52.0218C38.9968 51.5145 39.6705 51.2901 40.2292 51.1996C40.7953 51.1109 41.2594 51.143 41.5749 51.1826C41.7327 51.2033 41.8533 51.226 41.935 51.2429C42.0167 51.2618 42.0594 51.2731 42.0594 51.275C42.0594 51.2788 42.0148 51.2731 41.9331 51.2618C41.8515 51.2505 41.729 51.2335 41.5712 51.2184C41.2575 51.1901 40.7972 51.1694 40.2422 51.2656C39.6928 51.3655 39.0358 51.5918 38.4752 52.0878C37.9165 52.5706 37.4525 53.3325 37.4432 54.2075C37.4339 54.6394 37.5137 55.0618 37.627 55.4541C37.7458 55.8463 37.8942 56.2141 38.0669 56.5498C38.4084 57.223 38.8372 57.7567 39.2344 58.1622C39.6353 58.5639 40.0084 58.8392 40.2719 59.0146C40.5336 59.1957 40.6914 59.2749 40.6858 59.2843Z" fill="#455A64"/>
<path d="M45.1702 57.2608C45.1498 57.2495 45.4505 56.8855 45.6639 56.1745C45.766 55.82 45.8402 55.3806 45.8161 54.894C45.7938 54.4074 45.6676 53.8775 45.4078 53.3796C44.8899 52.3764 43.9916 51.7635 43.2974 51.5749C42.9466 51.4768 42.6477 51.4881 42.4491 51.5315C42.2505 51.5768 42.1503 51.6333 42.1466 51.6239C42.1447 51.6201 42.1689 51.605 42.2171 51.5805C42.2654 51.5541 42.3396 51.524 42.4398 51.4957C42.6403 51.441 42.9503 51.4183 43.3122 51.5089C43.6742 51.5994 44.0825 51.7955 44.4704 52.101C44.8584 52.4047 45.2259 52.8252 45.4913 53.3363C45.7586 53.8455 45.8866 54.3942 45.9033 54.8921C45.9238 55.3919 45.8402 55.8388 45.7289 56.1971C45.6138 56.5555 45.4709 56.8251 45.3595 57.0024C45.3057 57.091 45.2574 57.157 45.224 57.2004C45.1925 57.2419 45.1739 57.2645 45.1702 57.2608Z" fill="#455A64"/>
<path d="M72.8186 6.22913H44.2383V27.8827H72.8186V6.22913Z" fill="white"/>
<path d="M72.8186 27.8826C72.8186 27.8826 72.8149 27.7469 72.8149 27.4866C72.813 27.2245 72.813 26.8398 72.8112 26.3362C72.8093 25.3273 72.8056 23.8507 72.8019 21.9629C72.7963 18.1912 72.7908 12.7825 72.7815 6.23097L72.8205 6.27058C64.765 6.27246 54.8942 6.27623 44.242 6.28H44.2402L44.2884 6.23097C44.2866 14.0121 44.2847 21.3821 44.2828 27.8826L44.2383 27.8374C52.6984 27.8468 59.8389 27.8544 64.8652 27.86C67.3802 27.8657 69.3663 27.8694 70.7249 27.8713C71.4043 27.8732 71.9258 27.8751 72.2803 27.877C72.4567 27.8789 72.5903 27.8789 72.6813 27.8789C72.7703 27.8808 72.8186 27.8826 72.8186 27.8826C72.8186 27.8826 72.7741 27.8845 72.6868 27.8845C72.5959 27.8845 72.4641 27.8864 72.2915 27.8864C71.9388 27.8883 71.421 27.8902 70.7453 27.8921C69.3885 27.894 67.4062 27.8996 64.8949 27.9034C59.8611 27.909 52.7114 27.9166 44.2402 27.926H44.1956V27.8808C44.1938 21.3783 44.1919 14.0083 44.1919 6.22909V6.18005H44.2402H44.242C54.8923 6.18383 64.765 6.18571 72.8205 6.18948H72.8594V6.22909C72.8502 12.79 72.8446 18.2062 72.839 21.9855C72.8353 23.8695 72.8316 25.3443 72.8297 26.3513C72.8279 26.8511 72.826 27.2339 72.826 27.4942C72.8205 27.7525 72.8186 27.8826 72.8186 27.8826Z" fill="#263238"/>
<path d="M76.3528 19.0134H58.9741V25.878H76.3528V19.0134Z" fill="#FAFAFA"/>
<path d="M76.3528 25.8761C76.3528 25.8761 76.3509 25.8327 76.349 25.7535C76.349 25.6705 76.3472 25.5517 76.3453 25.3971C76.3435 25.0821 76.3398 24.6239 76.3379 24.0336C76.3342 22.8492 76.3268 21.1388 76.3193 19.0134L76.3528 19.0473C71.989 19.0511 65.8138 19.0568 58.9759 19.0624H58.974L59.0223 19.0134C59.0223 21.4141 59.0204 23.7318 59.0204 25.878L58.974 25.8308C63.9985 25.8402 68.3362 25.8478 71.4211 25.8534C72.9635 25.8591 74.1941 25.8629 75.0423 25.8666C75.4637 25.8685 75.7885 25.8704 76.0131 25.8723C76.1226 25.8742 76.2061 25.8742 76.2655 25.8761C76.3212 25.8742 76.3528 25.8761 76.3528 25.8761C76.3528 25.8761 76.3268 25.878 76.2711 25.8798C76.2117 25.8798 76.13 25.8817 76.0242 25.8836C75.8015 25.8855 75.4804 25.8874 75.0628 25.8893C74.2182 25.893 72.9913 25.8968 71.4526 25.9025C68.3585 25.9081 64.0097 25.9157 58.974 25.9251H58.9276V25.878C58.9276 23.7337 58.9258 21.4141 58.9258 19.0134V18.9644H58.974H58.9759C65.8156 18.97 71.989 18.9757 76.3528 18.9794H76.3862V19.0134C76.3787 21.1463 76.3732 22.8662 76.3676 24.0543C76.3639 24.6427 76.362 25.0972 76.3602 25.4103C76.3583 25.5611 76.3583 25.6781 76.3565 25.761C76.3546 25.8384 76.3528 25.8761 76.3528 25.8761Z" fill="#263238"/>
<path d="M76.3528 19.0134H58.9741V20.4844H76.3528V19.0134Z" fill="#263238"/>
<path d="M62.7456 21.6046H61.0398V23.3377H62.7456V21.6046Z" fill="#263238"/>
<path d="M63.7775 22.655H62.0718V24.3881H63.7775V22.655Z" fill="#263238"/>
<path d="M66.8125 21.6046H65.1067V23.3377H66.8125V21.6046Z" fill="#263238"/>
<path d="M67.8461 22.655H66.1404V24.3881H67.8461V22.655Z" fill="#F5F5F5"/>
<path d="M67.848 24.39C67.8443 24.3862 67.8424 24.341 67.8387 24.2561C67.835 24.158 67.8313 24.0411 67.8276 23.8997C67.8202 23.5942 67.8109 23.1661 67.8072 22.6569L67.8499 22.7003C67.3487 22.7022 66.7659 22.704 66.1441 22.7078C66.133 22.7191 66.2351 22.6154 66.1924 22.6588V22.6607V22.6644V22.672V22.6871V22.7172V22.7757V22.8926C66.1924 22.9699 66.1924 23.0473 66.1924 23.1246C66.1924 23.2773 66.1924 23.4263 66.1905 23.5734C66.1886 23.8638 66.1868 24.1373 66.1849 24.3919L66.1423 24.3485C66.6453 24.3523 67.0666 24.3617 67.3654 24.3693C67.5046 24.373 67.6216 24.3768 67.7162 24.3806C67.7979 24.3825 67.8443 24.3862 67.848 24.39C67.8517 24.3938 67.8109 24.3957 67.7348 24.3994C67.642 24.4032 67.5288 24.407 67.3933 24.4107C67.0963 24.4183 66.6638 24.4277 66.1423 24.4315H66.1014V24.3881C66.0996 24.1335 66.0977 23.8601 66.0958 23.5697C66.0958 23.4244 66.0958 23.2736 66.094 23.1208C66.094 23.0435 66.094 22.9662 66.094 22.8889V22.7719V22.7135V22.6833V22.6682V22.6607V22.6569V22.655C66.0513 22.6984 66.1534 22.5947 66.1423 22.606C66.764 22.6079 67.3487 22.6097 67.848 22.6135H67.8907V22.655C67.887 23.1849 67.8777 23.6243 67.8703 23.9261C67.8666 24.0637 67.8629 24.1788 67.8591 24.2731C67.8536 24.3523 67.8499 24.3919 67.848 24.39Z" fill="#263238"/>
<path d="M70.6081 21.6046H68.9023V23.3377H70.6081V21.6046Z" fill="#F5F5F5"/>
<path d="M70.61 23.3396C70.6063 23.3358 70.6044 23.2906 70.6007 23.2057C70.597 23.1076 70.5933 22.9907 70.5896 22.8493C70.5821 22.5438 70.5729 22.1157 70.5691 21.6065L70.6118 21.6498C70.1107 21.6517 69.5279 21.6536 68.9061 21.6574C68.8949 21.6687 68.997 21.565 68.9543 21.6084V21.6102V21.614V21.6216V21.6366V21.6668V21.7253V21.8422C68.9543 21.9195 68.9543 21.9968 68.9543 22.0742C68.9543 22.2269 68.9543 22.3759 68.9525 22.523C68.9506 22.8134 68.9488 23.0869 68.9469 23.3415L68.9042 23.2981C69.4072 23.3019 69.8286 23.3113 70.1274 23.3188C70.2666 23.3226 70.3835 23.3264 70.4782 23.3302C70.5599 23.332 70.6063 23.3358 70.61 23.3396C70.6137 23.3434 70.5728 23.3452 70.4967 23.349C70.4039 23.3528 70.2907 23.3566 70.1552 23.3603C69.8582 23.3679 69.4258 23.3773 68.9042 23.3811H68.8634V23.3377C68.8615 23.0831 68.8597 22.8097 68.8578 22.5192C68.8578 22.374 68.8578 22.2232 68.856 22.0704C68.856 21.9931 68.856 21.9158 68.856 21.8384V21.7215V21.6631V21.6329V21.6178V21.6102V21.6065V21.6046C68.8133 21.648 68.9153 21.5442 68.9042 21.5556C69.526 21.5574 70.1107 21.5593 70.61 21.5631H70.6527V21.6046C70.6489 22.1345 70.6397 22.5739 70.6322 22.8757C70.6285 23.0133 70.6248 23.1284 70.6211 23.2227C70.6155 23.3019 70.6118 23.3415 70.61 23.3396Z" fill="#263238"/>
<path d="M71.642 22.655H69.9363V24.3881H71.642V22.655Z" fill="#F5F5F5"/>
<path d="M71.6439 24.39C71.6402 24.3862 71.6383 24.341 71.6346 24.2561C71.6309 24.158 71.6272 24.0411 71.6235 23.8997C71.6161 23.5942 71.6068 23.1661 71.6031 22.6569L71.6458 22.7003C71.1446 22.7022 70.5618 22.704 69.94 22.7078C69.9289 22.7191 70.031 22.6154 69.9883 22.6588V22.6607V22.6644V22.672V22.6871V22.7172V22.7757V22.8926C69.9883 22.9699 69.9883 23.0473 69.9883 23.1246C69.9883 23.2773 69.9883 23.4263 69.9864 23.5734C69.9845 23.8638 69.9827 24.1373 69.9808 24.3919L69.9381 24.3485C70.4411 24.3523 70.8625 24.3617 71.1613 24.3693C71.3005 24.373 71.4175 24.3768 71.5121 24.3806C71.5938 24.3825 71.6402 24.3862 71.6439 24.39C71.6476 24.3938 71.6068 24.3957 71.5307 24.3994C71.4379 24.4032 71.3247 24.407 71.1892 24.4107C70.8922 24.4183 70.4597 24.4277 69.9381 24.4315H69.8973V24.3881C69.8955 24.1335 69.8936 23.8601 69.8917 23.5697C69.8917 23.4244 69.8917 23.2736 69.8899 23.1208C69.8899 23.0435 69.8899 22.9662 69.8899 22.8889V22.7719V22.7135V22.6833V22.6682V22.6607V22.6569V22.655C69.8472 22.6984 69.9493 22.5947 69.9381 22.606C70.5599 22.6079 71.1446 22.6097 71.6439 22.6135H71.6866V22.655C71.6829 23.1849 71.6736 23.6243 71.6662 23.9261C71.6625 24.0637 71.6588 24.1788 71.655 24.2731C71.6495 24.3523 71.6458 24.3919 71.6439 24.39Z" fill="#263238"/>
<path d="M70.61 22.655H69.9363V23.3396H70.61V22.655Z" fill="#263238"/>
<path d="M74.0976 21.6046H72.3918V23.3377H74.0976V21.6046Z" fill="#263238"/>
<path d="M75.1315 22.655H73.4258V24.3881H75.1315V22.655Z" fill="#263238"/>
<path d="M74.0995 22.655H73.4258V23.3396H74.0995V22.655Z" fill="#FAFAFA"/>
<path d="M79.7903 39.9503H63.0891V46.5471H79.7903V39.9503Z" fill="#FAFAFA"/>
<path d="M79.8126 46.5697H63.0649V39.9258H79.8126V46.5697ZM63.1113 46.5226H79.7662V39.9729H63.1113V46.5226Z" fill="#222221"/>
<path d="M79.7903 39.9503H63.0891V41.3647H79.7903V39.9503Z" fill="#263238"/>
<path d="M65.6803 43.1281H64.0303V44.8046H65.6803V43.1281Z" fill="#F5F5F5"/>
<path d="M65.6803 44.8046C65.6766 44.8008 65.6747 44.7555 65.671 44.6744C65.6673 44.5801 65.6636 44.4651 65.6599 44.3293C65.6524 44.0351 65.6431 43.6202 65.6394 43.128L65.6821 43.1714C65.1977 43.1733 64.6334 43.1752 64.032 43.1789C64.0209 43.1903 64.123 43.0865 64.0803 43.1299V43.1318V43.1356V43.1431V43.1582V43.1865V43.2431V43.3562C64.0803 43.4317 64.0803 43.5071 64.0803 43.5806C64.0803 43.7277 64.0803 43.8729 64.0785 44.0144C64.0766 44.2954 64.0747 44.5594 64.0729 44.8046L64.0302 44.7612C64.5165 44.765 64.923 44.7744 65.2125 44.7819C65.3462 44.7857 65.4594 44.7895 65.5522 44.7933C65.632 44.7989 65.6766 44.8008 65.6803 44.8046C65.6858 44.8102 65.5281 44.8178 65.2404 44.8253C64.9527 44.8329 64.5351 44.8423 64.0302 44.8461H63.9894V44.8027C63.9875 44.5575 63.9856 44.2916 63.9838 44.0125C63.9838 43.8711 63.9838 43.7277 63.9819 43.5788C63.9819 43.5052 63.9819 43.4298 63.9819 43.3543V43.2412V43.1846V43.1563V43.1412V43.1337V43.1299V43.128C63.9392 43.1714 64.0413 43.0677 64.0302 43.079C64.6316 43.0809 65.1958 43.0828 65.6803 43.0865H65.723V43.128C65.7192 43.641 65.71 44.0653 65.7025 44.3576C65.6933 44.6499 65.6858 44.8121 65.6803 44.8046Z" fill="#263238"/>
<path d="M64.0302 44.8046C64.0117 44.7857 64.3662 44.3953 64.8209 43.9314C65.2775 43.4675 65.6618 43.1092 65.6803 43.128C65.6989 43.1469 65.3444 43.5373 64.8896 44.0012C64.433 44.4651 64.0488 44.8234 64.0302 44.8046Z" fill="#E8505B"/>
<path d="M67.8278 43.1279H66.1777V44.8045H67.8278V43.1279Z" fill="#263238"/>
<path d="M69.9733 43.1279H68.3232V44.8045H69.9733V43.1279Z" fill="#455A64"/>
<path d="M72.1208 43.1279H70.4707V44.8045H72.1208V43.1279Z" fill="#E8505B"/>
<path d="M74.2685 43.1279H72.6184V44.8045H74.2685V43.1279Z" fill="#E8505B"/>
<g opacity="0.5">
<g opacity="0.5">
<path opacity="0.5" d="M74.2685 43.1279H72.6184V44.8045H74.2685V43.1279Z" fill="white"/>
</g>
</g>
<path d="M76.4159 43.1279H74.7659V44.8045H76.4159V43.1279Z" fill="#E8505B"/>
<g opacity="0.3">
<g opacity="0.3">
<path opacity="0.3" d="M76.4159 43.1279H74.7659V44.8045H76.4159V43.1279Z" fill="#15406A"/>
</g>
</g>
<path d="M78.5634 43.1279H76.9133V44.8045H78.5634V43.1279Z" fill="#E8505B"/>
<g opacity="0.7">
<g opacity="0.7">
<path opacity="0.7" d="M78.5634 43.1279H76.9133V44.8045H78.5634V43.1279Z" fill="black"/>
</g>
</g>
<path d="M37.3003 6.229H13.9468V22.753H37.3003V6.229Z" fill="white"/>
<path d="M37.3002 22.753C37.3002 22.753 37.2965 22.6493 37.2965 22.4513C37.2946 22.2514 37.2946 21.9591 37.2928 21.5762C37.2909 20.8087 37.2872 19.6847 37.2835 18.2477C37.2779 15.3736 37.2724 11.2473 37.2631 6.22902L37.3021 6.26862C30.815 6.27051 22.7149 6.27428 13.9504 6.27805H13.9486L13.9968 6.22902C13.995 12.1356 13.9931 17.7423 13.9931 22.753L13.9486 22.7078C20.8366 22.7172 26.6684 22.7247 30.7816 22.7304C32.84 22.736 34.4678 22.7398 35.5815 22.7417C36.1383 22.7436 36.5671 22.7455 36.8585 22.7474C37.0014 22.7492 37.1127 22.7492 37.1889 22.7492C37.2612 22.7511 37.3002 22.753 37.3002 22.753C37.3002 22.753 37.265 22.7549 37.1926 22.7549C37.1183 22.7549 37.0088 22.7568 36.8677 22.7568C36.5782 22.7587 36.1531 22.7606 35.6 22.7624C34.4864 22.7643 32.8623 22.77 30.8094 22.7738C26.6889 22.7794 20.8477 22.787 13.9467 22.7964H13.9022V22.7511C13.9003 17.7404 13.9003 12.1337 13.8984 6.22713V6.1781H13.9467H13.9486C22.7131 6.18187 30.8131 6.18564 37.3002 6.18753H37.3392V6.22713C37.3299 11.2567 37.3243 15.3906 37.3188 18.2703C37.3151 19.7036 37.3114 20.8257 37.3095 21.5913C37.3076 21.9704 37.3058 22.2608 37.3058 22.4588C37.3021 22.6549 37.3002 22.753 37.3002 22.753Z" fill="#263238"/>
<path d="M37.3003 6.229H13.9468V8.29403H37.3003V6.229Z" fill="#263238"/>
<path d="M15.2143 7.32099C15.2143 7.46431 15.1048 7.57935 14.9712 7.57935C14.8375 7.57935 14.728 7.46431 14.728 7.32099C14.728 7.17766 14.8375 7.06262 14.9712 7.06262C15.1048 7.06262 15.2143 7.17766 15.2143 7.32099Z" fill="white"/>
<path d="M16.2019 7.32099C16.2019 7.46431 16.0924 7.57935 15.9587 7.57935C15.8251 7.57935 15.7156 7.46431 15.7156 7.32099C15.7156 7.17766 15.8251 7.06262 15.9587 7.06262C16.0942 7.06262 16.2019 7.17766 16.2019 7.32099Z" fill="white"/>
<path d="M17.1911 7.32099C17.1911 7.46431 17.0816 7.57935 16.948 7.57935C16.8143 7.57935 16.7048 7.46431 16.7048 7.32099C16.7048 7.17766 16.8143 7.06262 16.948 7.06262C17.0816 7.06262 17.1911 7.17766 17.1911 7.32099Z" fill="white"/>
<path d="M19.4945 10.3176H16.1665V18.4306H19.4945V10.3176Z" fill="#E8505B"/>
<path d="M24.6268 10.3176H21.2988V18.4306H24.6268V10.3176Z" fill="#EBEBEB"/>
<path d="M29.7589 10.3176H26.4309V18.4306H29.7589V10.3176Z" fill="#FAFAFA"/>
<path d="M34.891 10.3817H31.563V18.4947H34.891V10.3817Z" fill="#E0E0E0"/>
<path d="M35.9527 19.3264H15.7805V21.1802H35.9527V19.3264Z" fill="#E8505B"/>
<path d="M34.4194 20.8011L34.8538 23.0321L35.2101 22.4098L35.9767 23.5225L36.3609 23.2716L35.5943 22.159L36.2978 22.0552L34.4194 20.8011Z" fill="#263238"/>
<path d="M28.3502 24.7181H18.071V42.632H28.3502V24.7181Z" fill="#FAFAFA"/>
<path d="M28.3501 42.632C28.3501 42.632 28.3482 42.6018 28.3482 42.5433C28.3482 42.483 28.3464 42.3981 28.3464 42.2869C28.3445 42.0606 28.3427 41.7286 28.3408 41.2987C28.3371 40.4349 28.3334 39.1808 28.3278 37.5967C28.3222 34.4322 28.3148 29.9608 28.3055 24.7162L28.3501 24.7615C25.1854 24.7634 21.7108 24.7634 18.0728 24.7652H18.071L18.1192 24.7162C18.1155 31.5506 18.1118 37.8174 18.1081 42.6301L18.071 42.5924C21.2189 42.5999 23.7841 42.6075 25.5641 42.6131C26.455 42.6169 27.1492 42.6207 27.6225 42.6225C27.8582 42.6244 28.0382 42.6263 28.1626 42.6263C28.2851 42.6282 28.3501 42.632 28.3501 42.632C28.3501 42.632 28.2907 42.6339 28.1719 42.6357C28.0494 42.6376 27.8712 42.6376 27.6392 42.6395C27.1659 42.6414 26.4754 42.6452 25.5882 42.6489C23.8008 42.6546 21.2282 42.6603 18.071 42.6697H18.0338V42.632C18.0301 37.8192 18.0264 31.5525 18.0227 24.7181V24.6691H18.071H18.0728C21.7108 24.671 25.1854 24.671 28.3501 24.6728H28.3946V24.7181C28.3853 29.974 28.3779 34.4567 28.3723 37.6288C28.3668 39.2072 28.3631 40.4595 28.3594 41.3194C28.3575 41.7456 28.3556 42.0719 28.3538 42.2982C28.3519 42.4076 28.3519 42.4905 28.3519 42.549C28.3519 42.6037 28.3501 42.632 28.3501 42.632Z" fill="#222221"/>
<path d="M28.3502 24.7181H18.071V26.2268H28.3502V24.7181Z" fill="#263238"/>
<path d="M20.5415 28.1107L20.6659 29.7835L21.1243 29.1743L21.8946 29.1404L20.5415 28.1107Z" fill="#263238"/>
<path d="M24.9832 28.1107C24.9813 28.107 25.0147 28.1315 25.0797 28.1786C25.1595 28.2371 25.2523 28.305 25.36 28.3842C25.6013 28.5615 25.9502 28.816 26.3511 29.1178L26.4142 29.1649L26.3363 29.1687C26.1043 29.1781 25.8537 29.1894 25.5938 29.2008L25.5679 29.2027L25.5901 29.1913C25.4287 29.4044 25.2727 29.61 25.128 29.8005L25.0834 29.8589L25.0779 29.7854C25.0426 29.2894 25.0203 28.8651 25.0036 28.569C24.9962 28.437 24.9906 28.3238 24.985 28.2277C24.9832 28.1484 24.9813 28.1088 24.9832 28.1107C24.985 28.1126 24.9888 28.1598 24.998 28.2427C25.0073 28.3427 25.0185 28.4596 25.0314 28.5935C25.0593 28.8915 25.0983 29.3026 25.1354 29.7816L25.0871 29.7665C25.2301 29.5761 25.3841 29.3705 25.5456 29.1555L25.553 29.1442H25.566L25.592 29.1423C25.8518 29.131 26.1024 29.1216 26.3344 29.1121L26.3196 29.163C25.9335 28.867 25.6068 28.6067 25.3674 28.4181C25.2597 28.3333 25.1669 28.2597 25.0871 28.1956C25.0222 28.1428 24.985 28.1145 24.9832 28.1107Z" fill="#263238"/>
<path d="M20.2426 35.3883C20.2315 35.377 20.7438 34.8226 21.386 34.1512C22.0282 33.4779 22.559 32.9424 22.5702 32.9537C22.5813 32.965 22.069 33.5194 21.4268 34.1908C20.7846 34.8641 20.2537 35.3996 20.2426 35.3883Z" fill="#263238"/>
<path d="M27.3774 34.155C27.3681 34.155 27.3774 34.0173 27.3217 33.7816C27.2642 33.5515 27.1213 33.2083 26.7853 32.9386C26.6183 32.8066 26.4085 32.6953 26.1635 32.6482C25.9204 32.6048 25.6457 32.6142 25.3858 32.7179C25.1241 32.816 24.8809 33.0046 24.7083 33.2573C24.532 33.5081 24.4336 33.8249 24.4299 34.1531C24.4318 34.4793 24.532 34.7981 24.7083 35.0489C24.8809 35.3016 25.1259 35.4902 25.3858 35.5882C25.6457 35.6938 25.9204 35.7033 26.1635 35.658C26.4085 35.6109 26.6201 35.4996 26.7853 35.3676C27.1213 35.0979 27.2642 34.7566 27.3217 34.5246C27.3793 34.2908 27.37 34.1531 27.3774 34.155C27.3774 34.155 27.3941 34.2926 27.3421 34.5321C27.2902 34.7679 27.151 35.1205 26.8094 35.4015C26.6405 35.5392 26.4234 35.6561 26.1709 35.707C25.9204 35.7542 25.6345 35.7466 25.3635 35.6391C25.0925 35.5392 24.8382 35.3431 24.6582 35.0828C24.4745 34.8226 24.3705 34.4925 24.3687 34.155C24.3705 33.8155 24.4745 33.4874 24.6582 33.2271C24.8382 32.965 25.0925 32.7707 25.3635 32.6708C25.6345 32.5633 25.9185 32.5558 26.1709 32.6029C26.4234 32.6538 26.6405 32.7707 26.8094 32.9084C27.151 33.1894 27.292 33.5421 27.3421 33.7778C27.3941 34.0173 27.3774 34.155 27.3774 34.155Z" fill="#263238"/>
<path d="M26.0468 38.1323C26.0468 38.1304 26.0598 38.1398 26.0839 38.1605C26.1154 38.1869 26.1507 38.2171 26.1897 38.2511C26.2955 38.3435 26.431 38.4604 26.5943 38.6037L26.6073 38.615L26.5962 38.6282C26.1841 39.1091 25.5697 39.8277 24.87 40.6442L24.8626 40.6518L24.8514 40.6537C24.7846 40.6631 24.7141 40.6744 24.6436 40.6857C24.5173 40.7046 24.3911 40.7234 24.2686 40.7423L24.2278 40.748L24.2352 40.7065C24.2816 40.467 24.328 40.235 24.3707 40.0162L24.3726 40.0087L24.3763 40.003C24.844 39.4429 25.2524 38.9677 25.5493 38.6339C25.8463 38.3039 26.0356 38.1191 26.0468 38.1323C26.0468 38.1341 26.0338 38.1455 26.0115 38.1662C25.9911 38.1888 25.9577 38.2228 25.9168 38.268C25.8352 38.3567 25.7201 38.4925 25.5753 38.6603C25.2876 38.9979 24.8848 39.4807 24.419 40.0408L24.4245 40.0276C24.3818 40.2482 24.3373 40.4783 24.2927 40.7197L24.2593 40.6857C24.3818 40.6669 24.5062 40.648 24.6343 40.6273C24.7048 40.6159 24.7753 40.6046 24.8422 40.5952L24.8254 40.6046C25.5326 39.7937 26.1526 39.0827 26.5683 38.6037L26.5702 38.6282C26.4143 38.4811 26.2843 38.3623 26.1823 38.2662C26.1433 38.2284 26.1099 38.1964 26.0802 38.1681C26.0579 38.1473 26.0468 38.1341 26.0468 38.1323Z" fill="#263238"/>
<path d="M22.2863 40.5763C22.2844 40.5744 22.2844 40.5593 22.2826 40.5273C22.2826 40.4877 22.2807 40.4424 22.2789 40.3896C22.277 40.2576 22.2752 40.086 22.2714 39.8748C22.2677 39.4203 22.264 38.7979 22.2585 38.0568L22.2844 38.0832C21.5791 38.0851 20.7532 38.0851 19.8752 38.087C19.8678 38.0926 19.929 38.0323 19.9031 38.0587V38.0606V38.0624V38.0681V38.0794V38.1002V38.1435V38.2303V38.4019C19.9031 38.5151 19.9031 38.6282 19.9031 38.7395C19.9031 38.962 19.9031 39.1789 19.9031 39.392C19.9012 39.8144 19.9012 40.2123 19.8993 40.5801L19.8752 40.5556C20.5861 40.5612 21.1819 40.565 21.6144 40.5688C21.8167 40.5706 21.98 40.5744 22.1063 40.5763C22.1564 40.5782 22.1991 40.5782 22.238 40.5801C22.2696 40.5744 22.2863 40.5763 22.2863 40.5763C22.2881 40.5782 22.2733 40.5782 22.2455 40.5801C22.2083 40.5801 22.1675 40.582 22.1192 40.5838C21.9949 40.5857 21.8315 40.5876 21.6329 40.5914C21.1949 40.5952 20.5935 40.5989 19.8771 40.6046H19.8529V40.5782C19.8529 40.2123 19.8511 39.8125 19.8492 39.3901C19.8492 39.1789 19.8492 38.9601 19.8492 38.7376C19.8492 38.6263 19.8492 38.5132 19.8492 38.4V38.2284V38.1416V38.0983V38.0775V38.0662V38.0606V38.0587V38.0568C19.8232 38.0832 19.8845 38.021 19.8789 38.0266C20.7587 38.0285 21.5828 38.0285 22.2881 38.0304H22.3141V38.0568C22.3086 38.8055 22.3049 39.4335 22.3011 39.8917C22.2993 40.1011 22.2956 40.2708 22.2937 40.4009C22.2919 40.4518 22.2919 40.4952 22.29 40.5329C22.2881 40.5631 22.2881 40.5782 22.2863 40.5763Z" fill="#263238"/>
<path d="M20.2426 38.0564C20.2426 38.0731 20.0088 38.0862 19.7192 38.0862C19.4297 38.0862 19.1958 38.0731 19.1958 38.0564C19.1958 38.0396 19.4297 38.0266 19.7192 38.0266C20.0088 38.0266 20.2426 38.0396 20.2426 38.0564Z" fill="#263238"/>
<path d="M19.8771 38.5415C19.8604 38.5415 19.8474 38.2737 19.8474 37.9436C19.8474 37.6136 19.8604 37.3458 19.8771 37.3458C19.8938 37.3458 19.9068 37.6136 19.9068 37.9436C19.905 38.2737 19.892 38.5415 19.8771 38.5415Z" fill="#263238"/>
<path d="M15.7861 30.0551H2.17529V43.8841H15.7861V30.0551Z" fill="#F5F5F5"/>
<path d="M20.7464 51.1572C21.7423 50.1453 21.7423 48.5046 20.7464 47.4927C19.7504 46.4808 18.1357 46.4808 17.1397 47.4927C16.1438 48.5046 16.1438 50.1453 17.1397 51.1572C18.1357 52.1691 19.7504 52.1691 20.7464 51.1572Z" fill="#E0E0E0"/>
<path d="M20.7688 49.8891C21.6401 49.0039 21.6401 47.5686 20.7688 46.6834C19.8976 45.7982 18.485 45.7982 17.6137 46.6834C16.7424 47.5686 16.7424 49.0039 17.6137 49.8891C18.485 50.7744 19.8976 50.7744 20.7688 49.8891Z" fill="#FAFAFA"/>
<path d="M19.1921 50.4697C20.3792 50.4697 21.3415 49.492 21.3415 48.2859C21.3415 47.0798 20.3792 46.1021 19.1921 46.1021C18.005 46.1021 17.0427 47.0798 17.0427 48.2859C17.0427 49.492 18.005 50.4697 19.1921 50.4697Z" fill="#E8505B"/>
<path d="M19.192 49.9605C18.2844 49.9605 17.5457 49.2099 17.5457 48.2878C17.5457 47.3656 18.2844 46.615 19.192 46.615C20.0997 46.615 20.8384 47.3656 20.8384 48.2878C20.8384 49.2099 20.1015 49.9605 19.192 49.9605ZM19.192 46.6225C18.29 46.6225 17.5549 47.3693 17.5549 48.2859C17.5549 49.2024 18.29 49.9492 19.192 49.9492C20.0941 49.9492 20.8291 49.2024 20.8291 48.2859C20.831 47.3693 20.0959 46.6225 19.192 46.6225Z" fill="#263238"/>
<g opacity="0.2">
<g opacity="0.2">
<path opacity="0.2" d="M19.3683 46.7602C18.9506 46.6602 18.4792 46.8469 18.2398 47.209C18.0003 47.5711 18.0077 48.084 18.2565 48.4405C18.5052 48.7969 18.9822 48.9704 19.3961 48.8591C19.8119 48.7479 20.1404 48.3556 20.1831 47.9219C20.2054 47.6993 20.1553 47.4674 20.0328 47.2825C19.8453 46.9997 19.6949 46.8337 19.3683 46.7602Z" fill="black"/>
</g>
</g>
<path d="M18.7893 49.6965L18.9118 49.8681L19.567 49.8474L19.6932 49.6965H18.7893Z" fill="#263238"/>
<path d="M62.701 51.0128C63.4534 51.0128 64.0634 50.3931 64.0634 49.6286C64.0634 48.8641 63.4534 48.2444 62.701 48.2444C61.9486 48.2444 61.3386 48.8641 61.3386 49.6286C61.3386 50.3931 61.9486 51.0128 62.701 51.0128Z" fill="#263238"/>
<path d="M63.1985 49.6286C63.1985 49.9077 62.9758 50.134 62.701 50.134C62.4263 50.134 62.2036 49.9077 62.2036 49.6286C62.2036 49.3495 62.4263 49.1232 62.701 49.1232C62.9758 49.1232 63.1985 49.3495 63.1985 49.6286Z" fill="#455A64"/>
<path d="M12.8293 45.8361C12.8293 45.8097 12.9481 45.7889 13.0929 45.7889C13.2377 45.7889 13.3565 45.8097 13.3565 45.8361C13.3565 45.8625 13.2377 45.8832 13.0929 45.8832C12.9463 45.8832 12.8293 45.8625 12.8293 45.8361Z" fill="#263238"/>
<path d="M11.7751 45.8361C11.7751 45.8097 11.8939 45.7889 12.0387 45.7889C12.1835 45.7889 12.3023 45.8097 12.3023 45.8361C12.3023 45.8625 12.1835 45.8832 12.0387 45.8832C11.8921 45.8832 11.7751 45.8625 11.7751 45.8361Z" fill="#263238"/>
<path d="M10.719 45.8361C10.719 45.8097 10.8378 45.7889 10.9826 45.7889C11.1273 45.7889 11.2461 45.8097 11.2461 45.8361C11.2461 45.8625 11.1273 45.8832 10.9826 45.8832C10.8378 45.8832 10.719 45.8625 10.719 45.8361Z" fill="#263238"/>
<path d="M9.66479 45.8361C9.66479 45.8097 9.78359 45.7889 9.92836 45.7889C10.0731 45.7889 10.1919 45.8097 10.1919 45.8361C10.1919 45.8625 10.0731 45.8832 9.92836 45.8832C9.78359 45.8832 9.66479 45.8625 9.66479 45.8361Z" fill="#263238"/>
<path d="M8.61035 45.8361C8.61035 45.8097 8.72914 45.7889 8.87392 45.7889C9.0187 45.7889 9.13749 45.8097 9.13749 45.8361C9.13749 45.8625 9.0187 45.8832 8.87392 45.8832C8.72914 45.8832 8.61035 45.8625 8.61035 45.8361Z" fill="#263238"/>
<path d="M7.55615 45.8361C7.55615 45.8097 7.67494 45.7889 7.81972 45.7889C7.9645 45.7889 8.08329 45.8097 8.08329 45.8361C8.08329 45.8625 7.9645 45.8832 7.81972 45.8832C7.67309 45.8832 7.55615 45.8625 7.55615 45.8361Z" fill="#263238"/>
<path d="M6.50195 45.8361C6.50195 45.8097 6.62074 45.7889 6.76552 45.7889C6.9103 45.7889 7.02909 45.8097 7.02909 45.8361C7.02909 45.8625 6.9103 45.8832 6.76552 45.8832C6.61889 45.8832 6.50195 45.8625 6.50195 45.8361Z" fill="#263238"/>
<path d="M5.44751 45.8361C5.44751 45.8097 5.5663 45.7889 5.71108 45.7889C5.85585 45.7889 5.97464 45.8097 5.97464 45.8361C5.97464 45.8625 5.85585 45.8832 5.71108 45.8832C5.56444 45.8832 5.44751 45.8625 5.44751 45.8361Z" fill="#263238"/>
<path d="M4.3916 45.8361C4.3916 45.8097 4.51039 45.7889 4.65517 45.7889C4.79994 45.7889 4.91874 45.8097 4.91874 45.8361C4.91874 45.8625 4.79994 45.8832 4.65517 45.8832C4.51039 45.8832 4.3916 45.8625 4.3916 45.8361Z" fill="#263238"/>
<path d="M3.33716 45.8361C3.33716 45.8097 3.45595 45.7889 3.60073 45.7889C3.7455 45.7889 3.86429 45.8097 3.86429 45.8361C3.86429 45.8625 3.7455 45.8832 3.60073 45.8832C3.45595 45.8832 3.33716 45.8625 3.33716 45.8361Z" fill="#263238"/>
<path d="M2.28296 45.8361C2.28296 45.8097 2.40175 45.7889 2.54653 45.7889C2.6913 45.7889 2.81009 45.8097 2.81009 45.8361C2.81009 45.8625 2.6913 45.8832 2.54653 45.8832C2.40175 45.8832 2.28296 45.8625 2.28296 45.8361Z" fill="#263238"/>
<path d="M1.22876 45.8361C1.22876 45.8097 1.34755 45.7889 1.49233 45.7889C1.6371 45.7889 1.75589 45.8097 1.75589 45.8361C1.75589 45.8625 1.6371 45.8832 1.49233 45.8832C1.34569 45.8832 1.22876 45.8625 1.22876 45.8361Z" fill="#263238"/>
<path d="M0.476965 45.5287C0.502951 45.5287 0.523368 45.6494 0.523368 45.7965C0.523368 45.8097 0.523368 45.8229 0.523368 45.8361L0.478822 45.7908C0.605037 45.7946 0.70341 45.8135 0.70341 45.8361C0.70341 45.8587 0.606893 45.8795 0.478822 45.8813L0.434275 45.8832V45.8361C0.434275 45.821 0.434275 45.8097 0.434275 45.7965C0.430563 45.6475 0.45098 45.5287 0.476965 45.5287Z" fill="#263238"/>
<path d="M0.477067 44.4575C0.503052 44.4575 0.523469 44.5782 0.523469 44.7253C0.523469 44.8724 0.503052 44.9931 0.477067 44.9931C0.451081 44.9931 0.430664 44.8724 0.430664 44.7253C0.430664 44.5763 0.451081 44.4575 0.477067 44.4575Z" fill="#263238"/>
<path d="M0.477067 43.3844C0.503052 43.3844 0.523469 43.5051 0.523469 43.6522C0.523469 43.7993 0.503052 43.92 0.477067 43.92C0.451081 43.92 0.430664 43.7993 0.430664 43.6522C0.430664 43.5051 0.451081 43.3844 0.477067 43.3844Z" fill="#263238"/>
<path d="M0.477067 42.3132C0.503052 42.3132 0.523469 42.4339 0.523469 42.581C0.523469 42.7281 0.503052 42.8488 0.477067 42.8488C0.451081 42.8488 0.430664 42.7281 0.430664 42.581C0.430664 42.4339 0.451081 42.3132 0.477067 42.3132Z" fill="#263238"/>
<path d="M0.477067 41.2421C0.503052 41.2421 0.523469 41.3628 0.523469 41.5099C0.523469 41.657 0.503052 41.7777 0.477067 41.7777C0.451081 41.7777 0.430664 41.657 0.430664 41.5099C0.430664 41.3628 0.451081 41.2421 0.477067 41.2421Z" fill="#263238"/>
<path d="M0.477067 40.1709C0.503052 40.1709 0.523469 40.2916 0.523469 40.4387C0.523469 40.5858 0.503052 40.7065 0.477067 40.7065C0.451081 40.7065 0.430664 40.5858 0.430664 40.4387C0.430664 40.2916 0.451081 40.1709 0.477067 40.1709Z" fill="#263238"/>
<path d="M0.477067 39.0997C0.503052 39.0997 0.523469 39.2204 0.523469 39.3675C0.523469 39.5146 0.503052 39.6353 0.477067 39.6353C0.451081 39.6353 0.430664 39.5146 0.430664 39.3675C0.430664 39.2185 0.451081 39.0997 0.477067 39.0997Z" fill="#263238"/>
<path d="M0.477067 38.0286C0.503052 38.0286 0.523469 38.1493 0.523469 38.2964C0.523469 38.4435 0.503052 38.5642 0.477067 38.5642C0.451081 38.5642 0.430664 38.4435 0.430664 38.2964C0.430664 38.1474 0.451081 38.0286 0.477067 38.0286Z" fill="#263238"/>
<path d="M0.477067 36.9556C0.503052 36.9556 0.523469 37.0763 0.523469 37.2234C0.523469 37.3705 0.503052 37.4912 0.477067 37.4912C0.451081 37.4912 0.430664 37.3705 0.430664 37.2234C0.430664 37.0763 0.451081 36.9556 0.477067 36.9556Z" fill="#263238"/>
<path d="M0.477067 35.8844C0.503052 35.8844 0.523469 36.0051 0.523469 36.1522C0.523469 36.2993 0.503052 36.42 0.477067 36.42C0.451081 36.42 0.430664 36.2993 0.430664 36.1522C0.430664 36.0051 0.451081 35.8844 0.477067 35.8844Z" fill="#263238"/>
<path d="M0.477067 34.8131C0.503052 34.8131 0.523469 34.9338 0.523469 35.0809C0.523469 35.228 0.503052 35.3487 0.477067 35.3487C0.451081 35.3487 0.430664 35.228 0.430664 35.0809C0.430664 34.9338 0.451081 34.8131 0.477067 34.8131Z" fill="#263238"/>
<path d="M0.477067 33.7419C0.503052 33.7419 0.523469 33.8626 0.523469 34.0097C0.523469 34.1568 0.503052 34.2775 0.477067 34.2775C0.451081 34.2775 0.430664 34.1568 0.430664 34.0097C0.430664 33.8626 0.451081 33.7419 0.477067 33.7419Z" fill="#263238"/>
<path d="M0.554926 32.7504C0.554926 32.7636 0.525228 32.7749 0.475114 32.7843L0.508523 32.7504C0.515948 32.7994 0.521516 32.8654 0.521516 32.9371C0.521516 33.0842 0.501099 33.2049 0.475114 33.2049C0.449128 33.2049 0.428711 33.0842 0.428711 32.9371C0.428711 32.8635 0.434279 32.7975 0.441704 32.7504L0.447272 32.7126L0.473257 32.7164C0.525228 32.7258 0.554926 32.7372 0.554926 32.7504Z" fill="#263238"/>
<path d="M1.61112 32.75C1.61112 32.7764 1.49233 32.7972 1.34755 32.7972C1.20278 32.7972 1.08398 32.7764 1.08398 32.75C1.08398 32.7236 1.20278 32.7029 1.34755 32.7029C1.49233 32.7048 1.61112 32.7255 1.61112 32.75Z" fill="#263238"/>
<path d="M2.66532 32.75C2.66532 32.7764 2.54653 32.7972 2.40175 32.7972C2.25697 32.7972 2.13818 32.7764 2.13818 32.75C2.13818 32.7236 2.25697 32.7029 2.40175 32.7029C2.54653 32.7048 2.66532 32.7255 2.66532 32.75Z" fill="#263238"/>
<path d="M3.71952 32.75C3.71952 32.7764 3.60073 32.7972 3.45595 32.7972C3.31117 32.7972 3.19238 32.7764 3.19238 32.75C3.19238 32.7236 3.31117 32.7029 3.45595 32.7029C3.60073 32.7048 3.71952 32.7255 3.71952 32.75Z" fill="#263238"/>
<path d="M4.77396 32.75C4.77396 32.7764 4.65517 32.7972 4.51039 32.7972C4.36562 32.7972 4.24683 32.7764 4.24683 32.75C4.24683 32.7236 4.36562 32.7029 4.51039 32.7029C4.65703 32.7048 4.77396 32.7255 4.77396 32.75Z" fill="#263238"/>
<path d="M5.82816 32.75C5.82816 32.7764 5.70937 32.7972 5.56459 32.7972C5.41982 32.7972 5.30103 32.7764 5.30103 32.75C5.30103 32.7236 5.41982 32.7029 5.56459 32.7029C5.71122 32.7048 5.82816 32.7255 5.82816 32.75Z" fill="#263238"/>
<path d="M6.88431 32.75C6.88431 32.7764 6.76552 32.7972 6.62074 32.7972C6.47597 32.7972 6.35718 32.7764 6.35718 32.75C6.35718 32.7236 6.47597 32.7029 6.62074 32.7029C6.76552 32.7048 6.88431 32.7255 6.88431 32.75Z" fill="#263238"/>
<path d="M7.93851 32.75C7.93851 32.7764 7.81972 32.7972 7.67494 32.7972C7.53017 32.7972 7.41138 32.7764 7.41138 32.75C7.41138 32.7236 7.53017 32.7029 7.67494 32.7029C7.81972 32.7048 7.93851 32.7255 7.93851 32.75Z" fill="#263238"/>
<path d="M8.99271 32.75C8.99271 32.7764 8.87392 32.7972 8.72914 32.7972C8.58437 32.7972 8.46558 32.7764 8.46558 32.75C8.46558 32.7236 8.58437 32.7029 8.72914 32.7029C8.87392 32.7048 8.99271 32.7255 8.99271 32.75Z" fill="#263238"/>
<path d="M10.0472 32.75C10.0472 32.7764 9.92836 32.7972 9.78359 32.7972C9.63881 32.7972 9.52002 32.7764 9.52002 32.75C9.52002 32.7236 9.63881 32.7029 9.78359 32.7029C9.92836 32.7048 10.0472 32.7255 10.0472 32.75Z" fill="#263238"/>
<path d="M11.1014 32.75C11.1014 32.7764 10.9826 32.7972 10.8378 32.7972C10.693 32.7972 10.5742 32.7764 10.5742 32.75C10.5742 32.7236 10.693 32.7029 10.8378 32.7029C10.9844 32.7048 11.1014 32.7255 11.1014 32.75Z" fill="#263238"/>
<path d="M12.1556 32.75C12.1556 32.7764 12.0368 32.7972 11.892 32.7972C11.7472 32.7972 11.6284 32.7764 11.6284 32.75C11.6284 32.7236 11.7472 32.7029 11.892 32.7029C12.0386 32.7048 12.1556 32.7255 12.1556 32.75Z" fill="#263238"/>
<path d="M13.2117 32.75C13.2117 32.7764 13.0929 32.7972 12.9481 32.7972C12.8034 32.7972 12.6846 32.7764 12.6846 32.75C12.6846 32.7236 12.8034 32.7029 12.9481 32.7029C13.0929 32.7048 13.2117 32.7255 13.2117 32.75Z" fill="#263238"/>
<path d="M13.3565 33.6741C13.3305 33.6741 13.3101 33.5534 13.3101 33.4063C13.3101 33.2592 13.3305 33.1385 13.3565 33.1385C13.3824 33.1385 13.4029 33.2592 13.4029 33.4063C13.401 33.5553 13.3806 33.6741 13.3565 33.6741Z" fill="#263238"/>
<path d="M13.3565 34.7453C13.3305 34.7453 13.3101 34.6246 13.3101 34.4775C13.3101 34.3304 13.3305 34.2097 13.3565 34.2097C13.3824 34.2097 13.4029 34.3304 13.4029 34.4775C13.401 34.6265 13.3806 34.7453 13.3565 34.7453Z" fill="#263238"/>
<path d="M13.3565 35.8183C13.3305 35.8183 13.3101 35.6976 13.3101 35.5505C13.3101 35.4034 13.3305 35.2827 13.3565 35.2827C13.3824 35.2827 13.4029 35.4034 13.4029 35.5505C13.401 35.6976 13.3806 35.8183 13.3565 35.8183Z" fill="#263238"/>
<path d="M13.3565 36.8895C13.3305 36.8895 13.3101 36.7688 13.3101 36.6217C13.3101 36.4746 13.3305 36.3539 13.3565 36.3539C13.3824 36.3539 13.4029 36.4746 13.4029 36.6217C13.401 36.7688 13.3806 36.8895 13.3565 36.8895Z" fill="#263238"/>
<path d="M13.3565 37.9606C13.3305 37.9606 13.3101 37.8399 13.3101 37.6928C13.3101 37.5457 13.3305 37.425 13.3565 37.425C13.3824 37.425 13.4029 37.5457 13.4029 37.6928C13.401 37.8399 13.3806 37.9606 13.3565 37.9606Z" fill="#263238"/>
<path d="M13.3565 39.0318C13.3305 39.0318 13.3101 38.9111 13.3101 38.764C13.3101 38.6169 13.3305 38.4962 13.3565 38.4962C13.3824 38.4962 13.4029 38.6169 13.4029 38.764C13.401 38.913 13.3806 39.0318 13.3565 39.0318Z" fill="#263238"/>
<path d="M13.3565 40.1031C13.3305 40.1031 13.3101 39.9824 13.3101 39.8353C13.3101 39.6882 13.3305 39.5675 13.3565 39.5675C13.3824 39.5675 13.4029 39.6882 13.4029 39.8353C13.401 39.9843 13.3806 40.1031 13.3565 40.1031Z" fill="#263238"/>
<path d="M13.3565 41.1743C13.3305 41.1743 13.3101 41.0536 13.3101 40.9065C13.3101 40.7594 13.3305 40.6387 13.3565 40.6387C13.3824 40.6387 13.4029 40.7594 13.4029 40.9065C13.401 41.0554 13.3806 41.1743 13.3565 41.1743Z" fill="#263238"/>
<path d="M13.3565 42.2473C13.3305 42.2473 13.3101 42.1266 13.3101 41.9795C13.3101 41.8324 13.3305 41.7117 13.3565 41.7117C13.3824 41.7117 13.4029 41.8324 13.4029 41.9795C13.401 42.1266 13.3806 42.2473 13.3565 42.2473Z" fill="#263238"/>
<path d="M13.3565 43.3184C13.3305 43.3184 13.3101 43.1977 13.3101 43.0506C13.3101 42.9035 13.3305 42.7828 13.3565 42.7828C13.3824 42.7828 13.4029 42.9035 13.4029 43.0506C13.401 43.1977 13.3806 43.3184 13.3565 43.3184Z" fill="#263238"/>
<path d="M13.3565 44.3896C13.3305 44.3896 13.3101 44.2689 13.3101 44.1218C13.3101 43.9747 13.3305 43.854 13.3565 43.854C13.3824 43.854 13.4029 43.9747 13.4029 44.1218C13.401 44.2689 13.3806 44.3896 13.3565 44.3896Z" fill="#263238"/>
<path d="M13.3565 45.4608C13.3305 45.4608 13.3101 45.3401 13.3101 45.193C13.3101 45.0459 13.3305 44.9252 13.3565 44.9252C13.3824 44.9252 13.4029 45.0459 13.4029 45.193C13.401 45.3419 13.3806 45.4608 13.3565 45.4608Z" fill="#263238"/>
<path d="M13.8334 45.2194H12.8794V46.1887H13.8334V45.2194Z" fill="#263238"/>
<path d="M0.954038 45.3513H0V46.3207H0.954038V45.3513Z" fill="#263238"/>
<path d="M13.8334 32.171H12.8794V33.1404H13.8334V32.171Z" fill="#263238"/>
<path d="M0.954038 32.2653H0V33.2346H0.954038V32.2653Z" fill="#263238"/>
</g>
<defs>
<clipPath id="clip0_83_15452">
<rect width="80" height="81" fill="white"/>
</clipPath>
</defs>
</svg>
