<svg width="321" height="236" viewBox="0 0 321 236" fill="none" xmlns="http://www.w3.org/2000/svg">
<g clip-path="url(#clip0_65_28512)">
<path d="M71.2655 65.1293L11.3912 105.108L70.3649 193.112L130.239 153.134L71.2655 65.1293Z" fill="#F5F5F5"/>
<path d="M99.3016 148.964L98.6186 153.161L68.8531 148.878L69.5362 144.681L99.3016 148.964Z" fill="#E0E0E0"/>
<path d="M84.3122 133.99L88.5811 134.603L83.8479 163.857L79.5736 163.239L84.3122 133.99Z" fill="#E0E0E0"/>
<path d="M56.8947 96.8108C56.9374 96.8747 50.9395 100.955 43.4955 105.925C36.0515 110.894 29.9842 114.873 29.9415 114.809C29.8988 114.745 35.8967 110.665 43.3407 105.696C50.7794 100.721 56.852 96.7469 56.8947 96.8108Z" fill="#E0E0E0"/>
<path d="M78.9119 91.2925C78.9546 91.3564 68.9759 98.0945 56.6279 106.335C44.2745 114.58 34.2318 121.212 34.1891 121.148C34.1464 121.084 44.1198 114.351 56.4731 106.1C68.8211 97.8602 78.8692 91.2286 78.9119 91.2925Z" fill="#E0E0E0"/>
<path d="M83.325 97.8762C83.3677 97.9401 73.389 104.678 61.041 112.918C48.6876 121.164 38.6449 127.796 38.6022 127.732C38.5595 127.668 48.5329 120.935 60.8862 112.684C73.2396 104.449 83.2823 97.8122 83.325 97.8762Z" fill="#E0E0E0"/>
<path d="M87.738 104.465C87.7807 104.529 77.802 111.267 65.454 119.507C53.1007 127.753 43.0579 134.385 43.0152 134.321C42.9725 134.257 52.9459 127.524 65.2992 119.273C77.6526 111.033 87.6953 104.401 87.738 104.465Z" fill="#E0E0E0"/>
<path d="M92.1564 111.054C92.1991 111.118 82.2204 117.856 69.8724 126.096C57.5191 134.342 47.4763 140.974 47.4336 140.91C47.3909 140.846 57.3643 134.113 69.7176 125.862C82.0656 117.622 92.1137 110.99 92.1564 111.054Z" fill="#E0E0E0"/>
<path d="M271.477 124.099L221.192 157.675L270.719 231.582L321.004 198.007L271.477 124.099Z" fill="#F5F5F5"/>
<path d="M295.023 194.517L294.452 198.043L269.452 194.447L270.023 190.921L295.023 194.517Z" fill="#E0E0E0"/>
<path d="M282.43 181.94L286.021 182.457L282.04 207.023L278.454 206.507L282.43 181.94Z" fill="#E0E0E0"/>
<path d="M259.409 150.716C259.452 150.78 254.42 154.216 248.166 158.386C241.912 162.562 236.811 165.891 236.768 165.827C236.725 165.764 241.757 162.328 248.011 158.152C254.26 153.981 259.367 150.652 259.409 150.716Z" fill="#E0E0E0"/>
<path d="M277.899 146.082C277.942 146.146 269.57 151.813 259.196 158.738C248.822 165.662 240.38 171.223 240.338 171.159C240.295 171.095 248.668 165.433 259.041 158.503C269.415 151.579 277.857 146.018 277.899 146.082Z" fill="#E0E0E0"/>
<path d="M281.608 151.611C281.651 151.675 273.278 157.342 262.905 164.267C252.531 171.191 244.089 176.752 244.046 176.688C244.004 176.624 252.376 170.962 262.75 164.032C273.118 157.113 281.565 151.552 281.608 151.611Z" fill="#E0E0E0"/>
<path d="M285.311 157.145C285.354 157.209 276.982 162.877 266.608 169.801C256.234 176.726 247.792 182.287 247.75 182.223C247.707 182.159 256.08 176.497 266.453 169.567C276.827 162.642 285.269 157.081 285.311 157.145Z" fill="#E0E0E0"/>
<path d="M289.02 162.68C289.063 162.743 280.69 168.411 270.317 175.335C259.943 182.26 251.501 187.821 251.458 187.757C251.416 187.693 259.788 182.031 270.162 175.101C280.536 168.177 288.977 162.616 289.02 162.68Z" fill="#E0E0E0"/>
<path d="M191.923 68.3561L137.057 39.066L93.8505 119.709L148.716 148.999L191.923 68.3561Z" fill="#F5F5F5"/>
<path d="M139.323 123.774L135.844 124.962L127.007 100.582L130.486 99.3889L139.323 123.774Z" fill="#E0E0E0"/>
<path d="M144.659 106.281L145.929 109.781L121.671 118.075L120.401 114.575L144.659 106.281Z" fill="#E0E0E0"/>
<path d="M161.895 70.3057C161.853 70.3856 156.287 67.4986 149.467 63.8552C142.642 60.2118 137.151 57.197 137.194 57.1171C137.237 57.0372 142.802 59.9242 149.622 63.5676C156.442 67.211 161.938 70.2258 161.895 70.3057Z" fill="#E0E0E0"/>
<path d="M175.06 84.8153C175.017 84.8952 165.807 80.064 154.494 74.0237C143.176 67.9833 134.035 63.0189 134.078 62.939C134.12 62.8591 143.331 67.6903 154.649 73.736C165.967 79.7711 175.103 84.7354 175.06 84.8153Z" fill="#E0E0E0"/>
<path d="M171.826 90.8504C171.783 90.9303 162.573 86.0991 151.26 80.0587C139.942 74.0183 130.801 69.054 130.844 68.9741C130.887 68.8942 140.097 73.7254 151.415 79.7711C162.733 85.8061 171.869 90.7705 171.826 90.8504Z" fill="#E0E0E0"/>
<path d="M168.592 96.8854C168.55 96.9653 159.339 92.1341 148.027 86.0937C136.708 80.0534 127.568 75.089 127.61 75.0091C127.653 74.9292 136.863 79.7604 148.181 85.8061C159.494 91.8411 168.635 96.8055 168.592 96.8854Z" fill="#E0E0E0"/>
<path d="M165.359 102.92C165.316 103 156.106 98.1691 144.793 92.1287C133.475 86.0884 124.334 81.124 124.376 81.0441C124.419 80.9642 133.629 85.7954 144.948 91.8411C156.26 97.8761 165.401 102.841 165.359 102.92Z" fill="#E0E0E0"/>
<path opacity="0.2" d="M165.647 0H164.27V23.4264H165.647V0Z" fill="black"/>
<path d="M132.818 51.7692H197.098C197.098 51.7692 191.165 23.4157 164.473 23.4157C140.727 23.4157 132.818 51.7692 132.818 51.7692Z" fill="#15406A"/>
<path d="M164.649 0H164.27V23.4264H164.649V0Z" fill="#15406A"/>
<path d="M308.076 234.28C308.076 234.354 239.105 234.418 154.046 234.418C68.9546 234.418 0 234.354 0 234.28C0 234.205 68.9546 234.141 154.046 234.141C239.105 234.141 308.076 234.2 308.076 234.28Z" fill="#263238"/>
<path d="M258.289 56.1796C256.72 56.5418 255.957 58.3422 255.807 59.9401C255.658 61.5381 255.861 63.232 255.188 64.6914C254.431 66.3374 252.622 67.5465 252.558 69.3522C252.52 70.4548 253.177 71.4935 253.145 72.5961C253.091 74.4072 251.245 75.7761 251.144 77.5818C251.074 78.8868 251.944 80.1332 251.736 81.4223C251.576 82.4237 250.791 83.212 250.461 84.1761C249.804 86.0884 251.117 88.1977 252.835 89.2737C254.746 90.4722 257.195 90.7864 259.345 90.0993C261.496 89.4122 263.31 87.7449 264.169 85.6569C265.119 83.3558 264.911 80.7671 264.703 78.2849C264.057 70.556 263.582 62.8165 263.267 55.0716" fill="#263238"/>
<path d="M253.732 83.4464C253.7 83.4144 254.159 83.2759 254.447 82.5941C254.585 82.2586 254.66 81.8111 254.628 81.2944C254.612 80.7724 254.431 80.2078 254.239 79.5686C254.062 78.9348 253.828 78.1997 253.961 77.3847C254.095 76.5538 254.692 75.872 255.231 75.2061C255.503 74.8652 255.781 74.5137 255.951 74.1142C256.133 73.72 256.17 73.2619 256.037 72.8358C255.759 71.9676 254.906 71.3231 254.516 70.3217C254.324 69.8156 254.319 69.267 254.431 68.7663C254.537 68.2656 254.74 67.8075 254.948 67.3707C255.365 66.5025 255.829 65.7088 256.01 64.8619C256.384 63.1734 256.208 61.5594 256.464 60.2331C256.693 58.9068 257.259 57.9054 257.814 57.394C258.086 57.1277 258.347 56.9892 258.518 56.8933C258.7 56.8134 258.796 56.7815 258.801 56.7868C258.817 56.8188 258.406 56.9413 257.889 57.4686C257.376 57.9853 256.859 58.9654 256.656 60.2651C256.549 60.9096 256.533 61.6393 256.506 62.417C256.48 63.1947 256.453 64.0416 256.256 64.9152C256.069 65.7994 255.599 66.6303 255.194 67.4773C254.794 68.3135 254.425 69.2936 254.778 70.2098C255.119 71.1153 255.978 71.7598 256.298 72.7399C256.458 73.23 256.405 73.768 256.197 74.2047C256 74.6469 255.711 75.0144 255.434 75.3553C254.874 76.0264 254.319 76.671 254.191 77.4167C254.057 78.1571 254.265 78.8762 254.431 79.5047C254.607 80.1386 254.783 80.7351 254.788 81.2785C254.804 81.8164 254.713 82.2852 254.548 82.6261C254.388 82.9723 254.164 83.1907 254.004 83.2972C253.838 83.4251 253.732 83.4464 253.732 83.4464Z" fill="#455A64"/>
<path d="M249.532 96.0757L244.713 109.936L224.628 111.012L221.277 118.453L242.248 120.573C246.432 122.299 251.208 120.184 252.734 115.933L258.331 100.337L249.532 96.0757Z" fill="#B78876"/>
<path d="M291.08 226.753C291.08 226.753 276.357 180.081 276.048 178.569C275.765 177.2 281.389 143.616 282.099 134.923L262.211 135.663C262.211 135.663 262.211 135.716 262.211 135.807L253.758 136.276L261.33 231.723H270.482L269.575 200.056C275.221 215.184 283.305 230.594 283.305 230.594L291.08 226.753Z" fill="#B78876"/>
<path d="M269.943 211.402C269.954 211.114 269.831 200.791 269.831 200.791C269.719 201.409 266.32 191.832 266.405 191.246C266.448 190.948 269.943 211.402 269.943 211.402Z" fill="#A36957"/>
<path d="M266.016 186.713C265.994 186.713 265.973 186.921 265.957 187.294C265.936 187.667 265.93 188.21 265.968 188.876C265.978 189.211 266.016 189.573 266.058 189.968C266.106 190.356 266.16 190.777 266.25 191.209C266.416 192.082 266.672 193.025 266.997 193.989C267.664 195.917 268.396 197.606 268.919 198.836C269.164 199.396 269.377 199.875 269.554 200.28C269.708 200.621 269.804 200.802 269.826 200.791C269.847 200.786 269.788 200.584 269.666 200.232C269.543 199.88 269.356 199.374 269.116 198.751C268.646 197.505 267.947 195.806 267.286 193.888C266.96 192.929 266.704 192.002 266.523 191.15C266.426 190.724 266.362 190.314 266.304 189.93C266.25 189.547 266.202 189.185 266.176 188.854C266.112 188.194 266.085 187.656 266.069 187.288C266.058 186.921 266.037 186.718 266.016 186.713Z" fill="#A36957"/>
<path d="M261.149 232.191L261.144 231.334L270.519 230.924L270.546 234.461L269.97 234.498C267.398 234.647 256.875 235.084 255.151 234.567C253.23 233.997 261.149 232.191 261.149 232.191Z" fill="#455A64"/>
<path d="M270.68 234.253C270.68 234.258 270.626 234.264 270.519 234.269C270.381 234.28 270.231 234.285 270.061 234.301C269.602 234.322 269.036 234.349 268.364 234.381C266.933 234.439 264.954 234.487 262.766 234.498C260.578 234.509 258.598 234.471 257.168 234.429C256.501 234.402 255.936 234.381 255.471 234.365C255.301 234.354 255.151 234.349 255.012 234.338C254.906 234.333 254.852 234.327 254.852 234.322C254.852 234.317 254.906 234.317 255.012 234.317C255.151 234.317 255.301 234.322 255.471 234.322C255.93 234.327 256.501 234.338 257.168 234.349C258.598 234.37 260.578 234.397 262.766 234.386C264.948 234.375 266.928 234.338 268.364 234.301C269.031 234.285 269.596 234.269 270.061 234.258C270.231 234.253 270.386 234.253 270.519 234.248C270.626 234.248 270.68 234.248 270.68 234.253Z" fill="#263238"/>
<path d="M258.113 234.551C258.081 234.557 258.049 234.152 257.793 233.747C257.542 233.337 257.195 233.129 257.211 233.102C257.216 233.076 257.616 233.246 257.889 233.688C258.166 234.125 258.145 234.562 258.113 234.551Z" fill="#263238"/>
<path d="M260.861 233.15C260.834 233.166 260.701 233.006 260.567 232.793C260.429 232.58 260.343 232.394 260.365 232.378C260.391 232.362 260.525 232.522 260.658 232.735C260.797 232.948 260.888 233.134 260.861 233.15Z" fill="#263238"/>
<path d="M261.613 232.745C261.592 232.767 261.443 232.671 261.282 232.527C261.122 232.383 261.005 232.25 261.026 232.223C261.048 232.202 261.197 232.298 261.357 232.442C261.523 232.591 261.635 232.724 261.613 232.745Z" fill="#263238"/>
<path d="M262.088 231.867C262.088 231.899 261.869 231.925 261.603 231.93C261.336 231.936 261.117 231.915 261.117 231.883C261.117 231.851 261.336 231.824 261.603 231.819C261.869 231.813 262.088 231.835 262.088 231.867Z" fill="#263238"/>
<path d="M262.254 231.249C262.264 231.275 262.029 231.382 261.709 231.408C261.394 231.435 261.144 231.366 261.149 231.334C261.154 231.302 261.4 231.318 261.699 231.297C261.997 231.27 262.243 231.217 262.254 231.249Z" fill="#263238"/>
<path d="M260.541 232.335C260.541 232.346 260.311 232.378 259.943 232.335C259.756 232.314 259.537 232.271 259.303 232.197C259.185 232.154 259.063 232.128 258.934 232.048C258.876 232.01 258.806 231.952 258.785 231.861C258.758 231.771 258.806 231.669 258.876 231.622C259.447 231.323 260.023 231.643 260.237 231.936C260.354 232.085 260.407 232.234 260.434 232.335C260.461 232.437 260.455 232.495 260.45 232.495C260.429 232.5 260.407 232.261 260.172 231.984C260.055 231.851 259.884 231.717 259.66 231.653C259.447 231.59 259.148 231.574 258.945 231.707C258.849 231.776 258.886 231.888 258.993 231.952C259.095 232.016 259.217 232.053 259.329 232.096C259.559 232.17 259.767 232.223 259.948 232.255C260.311 232.319 260.541 232.319 260.541 232.335Z" fill="#263238"/>
<path d="M260.386 232.367C260.375 232.373 260.29 232.223 260.317 231.952C260.333 231.819 260.381 231.664 260.477 231.515C260.583 231.382 260.717 231.201 260.973 231.206C261.112 231.222 261.181 231.382 261.16 231.483C261.149 231.59 261.101 231.68 261.058 231.749C260.968 231.898 260.872 232.021 260.775 232.112C260.589 232.298 260.439 232.367 260.434 232.357C260.423 232.341 260.551 232.25 260.717 232.058C260.797 231.962 260.888 231.845 260.968 231.696C261.048 231.568 261.106 231.345 260.957 231.318C260.807 231.302 260.653 231.451 260.562 231.574C260.466 231.701 260.418 231.845 260.391 231.962C260.349 232.207 260.407 232.362 260.386 232.367Z" fill="#263238"/>
<path d="M270.482 231.701C270.482 231.723 270.215 231.675 269.794 231.728C269.377 231.776 268.796 231.947 268.294 232.351C267.793 232.756 267.494 233.283 267.36 233.678C267.222 234.077 267.206 234.343 267.184 234.343C267.179 234.343 267.174 234.274 267.184 234.157C267.195 234.035 267.222 233.864 267.286 233.656C267.408 233.241 267.702 232.687 268.225 232.266C268.748 231.845 269.356 231.68 269.788 231.648C270.007 231.632 270.183 231.643 270.301 231.659C270.418 231.68 270.482 231.696 270.482 231.701Z" fill="#263238"/>
<path d="M265.989 233.507C265.994 233.534 265.386 233.635 264.628 233.635C263.87 233.64 263.262 233.55 263.262 233.518C263.267 233.486 263.876 233.523 264.623 233.518C265.381 233.523 265.989 233.475 265.989 233.507Z" fill="#263238"/>
<path d="M267.819 233.491C267.841 233.513 267.771 233.619 267.707 233.758C267.643 233.896 267.611 234.019 267.579 234.019C267.547 234.019 267.531 233.869 267.606 233.71C267.675 233.55 267.798 233.465 267.819 233.491Z" fill="#263238"/>
<path d="M268.502 232.634C268.524 232.655 268.465 232.751 268.369 232.852C268.273 232.948 268.177 233.012 268.155 232.991C268.134 232.969 268.193 232.873 268.289 232.772C268.385 232.671 268.481 232.607 268.502 232.634Z" fill="#263238"/>
<path d="M269.49 232.234C269.484 232.266 269.361 232.266 269.223 232.314C269.084 232.362 268.988 232.436 268.961 232.415C268.935 232.399 269.015 232.266 269.185 232.207C269.356 232.149 269.495 232.207 269.49 232.234Z" fill="#263238"/>
<path d="M270.188 232.048C270.198 232.074 270.145 232.122 270.071 232.154C269.996 232.185 269.922 232.185 269.911 232.154C269.9 232.127 269.954 232.079 270.028 232.048C270.108 232.021 270.177 232.021 270.188 232.048Z" fill="#263238"/>
<path d="M283.118 231.366L282.761 230.583L291.144 226.375L292.622 229.592L292.11 229.864C289.826 231.052 280.402 235.75 278.62 235.984C276.635 236.25 283.118 231.366 283.118 231.366Z" fill="#455A64"/>
<path d="M292.654 229.347C292.654 229.352 292.606 229.379 292.515 229.427C292.393 229.491 292.259 229.56 292.11 229.64C291.699 229.848 291.192 230.103 290.594 230.407C289.314 231.046 287.526 231.898 285.536 232.804C283.545 233.704 281.725 234.482 280.397 235.031C279.778 235.281 279.249 235.494 278.823 235.664C278.662 235.728 278.524 235.782 278.39 235.829C278.289 235.867 278.241 235.883 278.236 235.877C278.236 235.872 278.284 235.851 278.38 235.808C278.508 235.755 278.646 235.691 278.801 235.622C279.223 235.441 279.746 235.217 280.359 234.956C281.677 234.391 283.492 233.603 285.482 232.703C287.473 231.803 289.26 230.956 290.552 230.338C291.155 230.05 291.667 229.805 292.083 229.603C292.238 229.528 292.377 229.464 292.499 229.406C292.601 229.368 292.654 229.347 292.654 229.347Z" fill="#263238"/>
<path d="M281.315 234.764C281.283 234.78 281.096 234.423 280.69 234.157C280.295 233.885 279.89 233.837 279.895 233.805C279.89 233.779 280.327 233.773 280.754 234.066C281.186 234.349 281.347 234.754 281.315 234.764Z" fill="#263238"/>
<path d="M283.246 232.357C283.23 232.383 283.043 232.293 282.83 232.154C282.617 232.016 282.462 231.883 282.478 231.856C282.494 231.829 282.681 231.92 282.894 232.058C283.102 232.197 283.262 232.33 283.246 232.357Z" fill="#263238"/>
<path d="M283.769 231.685C283.759 231.717 283.582 231.685 283.38 231.622C283.172 231.558 283.017 231.478 283.022 231.451C283.033 231.419 283.204 231.451 283.412 231.515C283.62 231.579 283.78 231.653 283.769 231.685Z" fill="#263238"/>
<path d="M283.839 230.684C283.849 230.711 283.663 230.828 283.422 230.94C283.177 231.052 282.969 231.121 282.958 231.094C282.947 231.068 283.134 230.95 283.374 230.839C283.62 230.727 283.828 230.657 283.839 230.684Z" fill="#263238"/>
<path d="M283.732 230.055C283.753 230.077 283.582 230.274 283.305 230.423C283.027 230.577 282.771 230.615 282.766 230.588C282.755 230.556 282.99 230.471 283.252 230.327C283.513 230.178 283.71 230.029 283.732 230.055Z" fill="#263238"/>
<path d="M282.622 231.749C282.627 231.76 282.43 231.883 282.072 231.994C281.896 232.048 281.677 232.101 281.432 232.128C281.309 232.138 281.186 232.16 281.037 232.144C280.968 232.133 280.882 232.106 280.824 232.037C280.765 231.968 280.765 231.856 280.808 231.781C281.208 231.275 281.864 231.334 282.179 231.515C282.35 231.606 282.456 231.717 282.521 231.797C282.585 231.883 282.606 231.936 282.601 231.936C282.585 231.952 282.467 231.739 282.142 231.584C281.982 231.51 281.768 231.462 281.539 231.494C281.32 231.526 281.037 231.632 280.909 231.835C280.85 231.936 280.93 232.026 281.053 232.037C281.17 232.053 281.304 232.037 281.421 232.032C281.661 232.01 281.875 231.968 282.051 231.925C282.403 231.824 282.617 231.733 282.622 231.749Z" fill="#263238"/>
<path d="M282.494 231.84C282.489 231.851 282.344 231.744 282.259 231.488C282.216 231.36 282.195 231.201 282.227 231.025C282.27 230.86 282.318 230.636 282.558 230.54C282.691 230.498 283.006 230.769 283.028 230.87C283.06 230.972 282.867 230.918 282.862 231.004C282.841 231.174 282.803 231.329 282.755 231.451C282.659 231.696 282.553 231.819 282.542 231.813C282.526 231.803 282.606 231.664 282.681 231.424C282.718 231.302 282.75 231.158 282.761 230.993C282.782 230.844 282.739 230.615 282.59 230.652C282.446 230.7 282.371 230.897 282.334 231.046C282.302 231.201 282.312 231.35 282.339 231.472C282.392 231.707 282.51 231.829 282.494 231.84Z" fill="#263238"/>
<path d="M291.427 227.105C291.432 227.126 291.171 227.19 290.808 227.408C290.445 227.621 289.986 228.015 289.692 228.591C289.399 229.166 289.346 229.768 289.383 230.183C289.42 230.604 289.516 230.854 289.495 230.86C289.49 230.86 289.458 230.801 289.415 230.689C289.372 230.577 289.33 230.407 289.298 230.189C289.239 229.763 289.276 229.134 289.586 228.532C289.89 227.936 290.381 227.531 290.76 227.334C290.952 227.232 291.117 227.168 291.235 227.137C291.357 227.11 291.427 227.099 291.427 227.105Z" fill="#263238"/>
<path d="M288.07 230.588C288.086 230.615 287.569 230.95 286.88 231.265C286.192 231.579 285.6 231.744 285.589 231.717C285.578 231.685 286.149 231.472 286.832 231.163C287.521 230.855 288.054 230.562 288.07 230.588Z" fill="#263238"/>
<path d="M289.73 229.826C289.762 229.837 289.735 229.965 289.74 230.119C289.74 230.274 289.762 230.396 289.73 230.412C289.703 230.423 289.623 230.301 289.623 230.119C289.628 229.938 289.703 229.811 289.73 229.826Z" fill="#263238"/>
<path d="M290.007 228.761C290.034 228.772 290.023 228.884 289.975 229.011C289.927 229.139 289.863 229.235 289.836 229.225C289.81 229.214 289.82 229.102 289.869 228.974C289.911 228.846 289.975 228.75 290.007 228.761Z" fill="#263238"/>
<path d="M290.744 227.999C290.749 228.031 290.637 228.079 290.53 228.181C290.423 228.276 290.365 228.388 290.333 228.378C290.301 228.372 290.322 228.218 290.45 228.095C290.584 227.973 290.738 227.967 290.744 227.999Z" fill="#263238"/>
<path d="M291.303 227.541C291.325 227.563 291.298 227.626 291.239 227.69C291.181 227.748 291.117 227.78 291.096 227.759C291.075 227.738 291.101 227.674 291.16 227.61C291.218 227.547 291.282 227.52 291.303 227.541Z" fill="#263238"/>
<path d="M280.808 119.124L279.244 100.108L287.264 100.252C287.264 100.252 287.638 97.45 286.453 91.2978C285.728 87.5266 283.214 85.2148 280.391 83.8406V83.7926L280.146 83.7287C276.555 82.0508 272.798 81.8165 272.798 81.8165L262.953 81.9283C262.953 81.9283 255.434 80.9908 251.272 86.3441C249.671 88.4055 244.708 102.516 244.708 102.516L256.522 108.194L255.397 100.369C255.397 100.369 255.621 106.042 256.346 107.837C256.752 108.838 257.921 111.949 257.921 111.949L257.766 121.329L280.808 119.124Z" fill="#D0DCE8"/>
<path d="M275.375 97.3488L273.919 103.56H287.702L286.795 93.1408L275.375 97.3488Z" fill="#D0DCE8"/>
<path d="M287.702 103.56C287.702 103.517 287.008 103.448 285.877 103.379C284.746 103.315 283.182 103.256 281.459 103.267C279.73 103.277 278.166 103.352 277.04 103.437C275.909 103.528 275.215 103.624 275.221 103.661C275.226 103.703 275.925 103.687 277.051 103.65C278.182 103.618 279.74 103.576 281.459 103.565C283.182 103.56 284.74 103.581 285.872 103.592C286.998 103.608 287.697 103.602 287.702 103.56Z" fill="#263238"/>
<path d="M274.783 93.0929C274.74 93.0929 274.724 93.7001 274.735 94.6749C274.746 95.6496 274.783 96.9973 274.836 98.4834C274.895 99.9695 274.964 101.317 275.028 102.287C275.093 103.261 275.157 103.858 275.199 103.858C275.242 103.858 275.258 103.251 275.247 102.276C275.237 101.301 275.199 99.9535 275.146 98.4674C275.087 96.9813 275.018 95.639 274.954 94.6642C274.884 93.6894 274.826 93.0929 274.783 93.0929Z" fill="#263238"/>
<g opacity="0.3">
<path opacity="0.3" d="M262.238 98.4727C262.238 98.4727 265.301 121.148 273.913 120.546C273.913 120.546 277.793 120.498 279.036 117.925V116.913L262.238 98.4727Z" fill="black"/>
</g>
<g opacity="0.3">
<path opacity="0.3" d="M274.783 94.4298L273.134 105.546L274.201 107.496L275.957 103.682L275.215 103.661L274.783 94.4298Z" fill="black"/>
</g>
<path d="M257.926 111.944C257.91 111.949 257.824 111.763 257.691 111.411C257.558 111.065 257.382 110.553 257.173 109.925C256.763 108.657 256.256 106.889 255.855 104.891C255.461 102.894 255.263 101.061 255.204 99.7298C255.172 99.064 255.162 98.526 255.172 98.1531C255.178 97.7803 255.194 97.5725 255.21 97.5725C255.252 97.5725 255.284 98.3928 255.397 99.7138C255.509 101.035 255.733 102.851 256.128 104.838C256.522 106.819 256.997 108.588 257.36 109.866C257.531 110.458 257.675 110.964 257.792 111.379C257.899 111.736 257.947 111.938 257.926 111.944Z" fill="#263238"/>
<path d="M261.41 118.458C261.336 118.479 261.122 117.989 260.936 117.366C260.743 116.743 260.653 116.216 260.727 116.194C260.802 116.173 261.016 116.663 261.202 117.286C261.389 117.915 261.485 118.437 261.41 118.458Z" fill="#263238"/>
<path d="M262.6 118.373C262.531 118.389 262.296 117.659 262.286 116.716C262.27 115.773 262.478 115.033 262.552 115.049C262.632 115.065 262.547 115.8 262.563 116.711C262.574 117.622 262.68 118.357 262.6 118.373Z" fill="#263238"/>
<path d="M256.768 108.449C256.736 108.519 253.982 107.214 250.626 105.541C247.269 103.869 244.575 102.452 244.607 102.382C244.639 102.313 247.392 103.618 250.749 105.291C254.111 106.963 256.805 108.38 256.768 108.449Z" fill="#263238"/>
<path d="M261.613 83.7607C261.677 81.0654 261.688 78.2263 261.688 78.2263C261.688 78.2263 258.225 77.5605 257.622 73.0116C257.045 68.6757 258.657 58.4966 258.657 58.4966C263.716 56.5897 268.972 58.3155 272.435 62.4063L271.576 84.2827C271.475 86.8234 269.207 88.7623 266.485 88.6345C263.737 88.512 261.555 86.3281 261.613 83.7607Z" fill="#B78876"/>
<path d="M258.396 66.6357C258.374 66.9446 258.62 67.211 258.94 67.2376C259.26 67.2642 259.532 67.0352 259.553 66.7316C259.575 66.4226 259.329 66.1563 259.009 66.1297C258.689 66.103 258.417 66.3267 258.396 66.6357Z" fill="#263238"/>
<path d="M258.182 65.874C258.251 65.9539 258.7 65.6396 259.329 65.6556C259.954 65.6662 260.407 65.9965 260.477 65.9219C260.509 65.8899 260.439 65.7515 260.247 65.6023C260.055 65.4532 259.724 65.304 259.329 65.2934C258.94 65.288 258.609 65.4212 258.417 65.5597C258.214 65.7035 258.145 65.8367 258.182 65.874Z" fill="#263238"/>
<path d="M264.751 67.0298C264.73 67.3388 264.975 67.6051 265.295 67.6317C265.615 67.6584 265.888 67.4293 265.909 67.1257C265.93 66.8168 265.685 66.5504 265.365 66.5238C265.044 66.4972 264.767 66.7262 264.751 67.0298Z" fill="#263238"/>
<path d="M264.708 66.2681C264.778 66.348 265.226 66.0337 265.856 66.0497C266.48 66.0604 266.933 66.3906 267.003 66.3161C267.035 66.2841 266.965 66.1456 266.768 65.9911C266.576 65.842 266.245 65.6928 265.85 65.6822C265.461 65.6769 265.13 65.81 264.938 65.9485C264.74 66.0977 264.671 66.2308 264.708 66.2681Z" fill="#263238"/>
<path d="M262.312 70.8437C262.318 70.8064 261.928 70.7318 261.298 70.6359C261.138 70.6146 260.989 70.5773 260.962 70.4708C260.925 70.3536 261 70.1832 261.08 70.0021C261.24 69.6186 261.405 69.2191 261.587 68.7983C262.286 67.0831 262.798 65.6769 262.729 65.6449C262.659 65.6183 262.035 66.9819 261.33 68.6971C261.16 69.1179 261 69.5227 260.845 69.9062C260.781 70.0873 260.669 70.2897 260.743 70.5294C260.781 70.6519 260.898 70.7371 261 70.7691C261.101 70.8011 261.192 70.8064 261.272 70.8117C261.917 70.865 262.312 70.881 262.312 70.8437Z" fill="#263238"/>
<path d="M261.693 78.2316C261.693 78.2316 264.74 78.5086 267.814 76.7722C267.814 76.7722 266.261 79.8456 261.731 79.3023L261.693 78.2316Z" fill="#A36957"/>
<path d="M266.709 64.4624C266.581 64.6595 266.106 64.5689 265.573 64.4731C265.039 64.3665 264.564 64.2706 264.521 64.0416C264.468 63.8232 265.018 63.5196 265.733 63.6528C266.443 63.7966 266.843 64.2813 266.709 64.4624Z" fill="#263238"/>
<path d="M260.487 63.5462C260.439 63.7753 259.927 63.8552 259.34 63.8871C258.753 63.9085 258.235 63.8765 258.166 63.6528C258.097 63.4397 258.593 63.0882 259.303 63.0562C260.007 63.0242 260.535 63.3279 260.487 63.5462Z" fill="#263238"/>
<path d="M262.323 72.3404C262.19 72.3031 262.04 72.3777 261.976 72.5002C261.896 72.644 261.933 72.8358 262.056 72.9423C262.179 73.0489 262.382 73.0489 262.51 72.9476C262.638 72.8464 262.681 72.6494 262.606 72.5055C262.531 72.3617 262.35 72.2818 262.19 72.3298" fill="#A36957"/>
<path d="M262.472 72.4043C262.499 72.3777 262.371 72.2232 262.099 72.2872C261.971 72.3138 261.805 72.4256 261.757 72.6227C261.709 72.8038 261.752 73.0382 261.944 73.1873C262.147 73.3258 262.387 73.2992 262.542 73.1927C262.712 73.0808 262.76 72.8784 262.734 72.7506C262.68 72.4683 262.472 72.4256 262.467 72.4629C262.446 72.5002 262.542 72.5961 262.52 72.7612C262.51 72.8411 262.472 72.9157 262.392 72.9583C262.318 73.0009 262.19 73.0009 262.12 72.9476C262.045 72.8944 262.008 72.7772 262.024 72.692C262.035 72.6014 262.093 72.5375 262.168 72.4949C262.318 72.399 262.451 72.4416 262.472 72.4043Z" fill="#263238"/>
<path d="M270.343 67.7596C269.804 69.006 268.486 69.9701 268.668 71.3177C268.785 72.186 269.345 73.0009 269.233 73.8692C269.095 74.9611 267.958 75.7228 267.798 76.8148C267.601 78.1518 268.903 79.1904 269.425 80.4422C270.183 82.2586 269.212 84.304 269.191 86.2748C269.153 89.2897 271.725 92.1074 274.735 92.3578C275.952 92.459 277.323 92.0914 277.958 91.0474C278.481 90.1845 278.374 89.0926 278.689 88.1338C279.153 86.7063 280.514 85.6676 280.802 84.1921C281.325 81.5075 278.075 79.2916 278.289 76.5644C278.38 75.3979 279.1 74.3858 279.404 73.2566C279.804 71.7811 279.436 70.1192 278.449 68.9474C277.649 67.9939 276.485 67.3707 275.802 66.332C275.028 65.1549 275.002 63.6581 274.708 62.2785C273.999 58.9174 271.469 55.9985 268.241 54.8106C265.012 53.6228 261.186 54.2034 258.46 56.2967C258.46 56.2967 257.686 59.807 261.293 60.3929C264.906 60.9788 266.576 60.3023 266.982 61.7458C266.982 61.7458 266.571 63.4344 268.065 65.043C269.564 66.6516 270.968 66.3107 270.343 67.7596Z" fill="#263238"/>
<path d="M276.101 92.1074C276.101 92.1181 275.989 92.1074 275.77 92.0755C275.557 92.0435 275.242 91.9689 274.852 91.8304C274.084 91.5481 272.99 90.9356 272.062 89.7637C271.597 89.1831 271.165 88.48 270.872 87.6544C270.573 86.8341 270.402 85.9019 270.386 84.9218C270.365 83.9417 270.503 82.9084 270.77 81.8804C270.904 81.3637 271.08 80.8523 271.282 80.341C271.48 79.8296 271.725 79.3342 271.869 78.8122C272.019 78.2902 272.003 77.7576 271.864 77.2515C271.725 76.7455 271.485 76.2661 271.256 75.7921C271.021 75.318 270.786 74.8493 270.631 74.3486C270.477 73.8532 270.418 73.3152 270.519 72.8198C270.733 71.8184 271.341 71.0727 271.704 70.311C272.083 69.5546 272.206 68.761 272.19 68.0419C272.126 66.593 271.507 65.5171 271 64.8992C270.471 64.2813 270.071 64.0416 270.092 64.0203C270.092 64.0203 270.514 64.2174 271.08 64.8299C271.624 65.4425 272.291 66.5291 272.382 68.0312C272.414 68.7716 272.302 69.6132 271.912 70.4069C271.544 71.1952 270.957 71.9463 270.77 72.8624C270.583 73.7893 271.021 74.7427 271.496 75.6695C271.731 76.1436 271.976 76.6337 272.126 77.177C272.275 77.715 272.296 78.3275 272.131 78.8815C271.982 79.4408 271.731 79.9415 271.533 80.4422C271.336 80.9429 271.16 81.4489 271.026 81.9496C270.76 82.9563 270.621 83.9631 270.637 84.9165C270.642 86.8341 271.304 88.5173 272.206 89.6412C273.091 90.7971 274.137 91.4203 274.884 91.7239C275.647 92.0275 276.106 92.0755 276.101 92.1074Z" fill="#455A64"/>
<path d="M275.573 65.2294C275.573 65.2454 275.295 65.2987 274.778 65.3466C274.265 65.3892 273.508 65.4478 272.579 65.288C271.677 65.1229 270.53 64.6808 269.804 63.6101C269.447 63.0722 269.308 62.4223 269.079 61.8204C268.86 61.2132 268.438 60.6859 267.862 60.3236C266.693 59.5832 265.322 59.4927 264.121 59.3489C262.915 59.2104 261.779 58.9547 261.01 58.3794C260.237 57.8308 259.842 57.117 259.735 56.6004C259.676 56.3447 259.682 56.1369 259.692 55.9984C259.714 55.86 259.724 55.7907 259.735 55.7907C259.767 55.7907 259.698 56.0837 259.836 56.5684C259.964 57.0478 260.365 57.7083 261.117 58.2143C261.859 58.7363 262.942 58.9654 264.143 59.0879C265.333 59.221 266.757 59.2956 268.006 60.0839C268.625 60.4675 269.1 61.0694 269.324 61.7139C269.564 62.3477 269.692 62.971 270.012 63.461C270.663 64.4518 271.741 64.9045 272.606 65.0856C273.497 65.2667 274.249 65.2401 274.762 65.2294C275.285 65.2241 275.567 65.2081 275.573 65.2294Z" fill="#455A64"/>
<path d="M274.244 60.8936C274.249 60.9096 274.031 60.9735 273.62 60.9841C273.214 60.9948 272.606 60.9255 271.934 60.606C271.597 60.4462 271.256 60.2224 270.941 59.9188C270.621 59.6152 270.359 59.2264 270.114 58.8162C269.634 58.0066 269.169 57.0052 268.171 56.595C267.195 56.1742 266.117 56.2701 265.183 56.334C264.239 56.4246 263.353 56.4565 262.633 56.3127C261.907 56.1849 261.362 55.8866 261.058 55.6096C260.904 55.4711 260.802 55.3486 260.743 55.2581C260.685 55.1675 260.658 55.1196 260.663 55.1142C260.685 55.0983 260.813 55.2847 261.128 55.5244C261.437 55.7641 261.965 56.0198 262.665 56.121C263.369 56.2328 264.212 56.1902 265.162 56.0837C266.101 56.0091 267.211 55.8919 268.284 56.3447C268.817 56.5684 269.249 56.9679 269.559 57.3993C269.874 57.8308 270.098 58.2836 270.338 58.6884C270.573 59.0985 270.813 59.4714 271.106 59.759C271.395 60.052 271.709 60.2757 272.024 60.4355C272.649 60.7604 273.23 60.8616 273.625 60.8829C274.02 60.8989 274.244 60.867 274.244 60.8936Z" fill="#455A64"/>
<path d="M277.697 90.9569C277.67 90.9462 277.841 90.6 278.038 89.9448C278.236 89.2897 278.428 88.3096 278.396 87.0898C278.353 85.8806 278.065 84.4158 277.259 83.0203C276.87 82.3225 276.277 81.6993 275.792 80.9376C275.551 80.5541 275.343 80.1279 275.253 79.6539C275.162 79.1798 275.215 78.6738 275.37 78.2157C275.669 77.2942 276.208 76.5218 276.32 75.6749C276.464 74.828 276.032 74.0556 275.626 73.3632C275.418 73.0116 275.215 72.6654 275.055 72.3032C274.895 71.941 274.794 71.5574 274.751 71.1899C274.671 70.4495 274.756 69.7677 274.81 69.1605C274.964 67.946 274.852 66.9446 274.559 66.3321C274.276 65.7088 273.903 65.5224 273.929 65.4958C273.935 65.4905 273.956 65.5011 273.993 65.5277C274.031 65.5544 274.095 65.5863 274.164 65.6502C274.308 65.7674 274.495 65.9698 274.655 66.2841C274.991 66.9073 275.135 67.9513 275.007 69.1765C274.964 69.789 274.89 70.4602 274.98 71.1633C275.05 71.8717 275.418 72.5375 275.845 73.23C276.053 73.5815 276.272 73.9491 276.427 74.3646C276.587 74.7747 276.656 75.2488 276.587 75.7069C276.459 76.639 275.909 77.4273 275.632 78.2903C275.487 78.7217 275.445 79.1691 275.519 79.5953C275.599 80.0214 275.786 80.4209 276.016 80.7884C276.475 81.5235 277.072 82.1574 277.472 82.8871C278.289 84.3306 278.566 85.838 278.588 87.0791C278.598 88.3256 278.369 89.3216 278.14 89.9715C278.022 90.2964 277.921 90.5467 277.83 90.7065C277.75 90.877 277.702 90.9622 277.697 90.9569Z" fill="#455A64"/>
<path d="M255.957 190.207C255.957 190.207 252.366 156.202 252.158 143.637C251.949 131.071 257.819 118.671 257.819 118.671L280.808 117.702C280.808 117.702 285.354 130.454 285.434 135.807C285.594 146.215 282.665 156.49 283.001 164.746L283.769 190.207" fill="#15406A"/>
<path d="M284.538 148.399C284.543 148.41 284.41 148.505 284.164 148.681C284.1 148.729 284.031 148.777 283.956 148.83C283.887 148.889 283.812 148.969 283.732 149.043C283.572 149.198 283.38 149.374 283.22 149.613C282.478 150.519 281.934 152.143 281.421 154.168C281.138 155.174 280.85 156.298 280.258 157.401C280.098 157.672 279.954 157.955 279.746 158.205C279.644 158.333 279.554 158.471 279.447 158.594L279.095 158.946C278.614 159.42 278.006 159.771 277.366 160.053C276.08 160.618 274.628 160.884 273.3 161.55C271.965 162.2 270.962 163.457 270.349 164.906C269.703 166.349 269.308 167.862 268.769 169.279C268.241 170.685 267.515 172.049 266.368 172.912C265.231 173.807 263.822 174.009 262.606 174.089C261.368 174.164 260.22 174.126 259.196 174.281C258.171 174.425 257.264 174.744 256.624 175.25C255.978 175.756 255.605 176.39 255.429 176.933C255.247 177.482 255.279 177.945 255.338 178.238C255.397 178.537 255.482 178.681 255.461 178.686C255.461 178.686 255.359 178.553 255.279 178.249C255.199 177.951 255.146 177.471 255.322 176.896C255.487 176.326 255.861 175.666 256.522 175.128C257.184 174.59 258.118 174.243 259.164 174.084C260.21 173.913 261.368 173.94 262.59 173.855C263.796 173.769 265.14 173.556 266.213 172.704C267.296 171.884 267.995 170.568 268.513 169.178C269.041 167.777 269.436 166.264 270.092 164.789C270.711 163.313 271.773 161.976 273.171 161.305C274.554 160.623 276.005 160.362 277.259 159.819C277.883 159.547 278.465 159.212 278.924 158.77L279.265 158.434C279.372 158.317 279.458 158.184 279.554 158.067C279.756 157.827 279.895 157.55 280.05 157.294C280.637 156.229 280.93 155.116 281.229 154.114C281.768 152.101 282.344 150.455 283.134 149.549C283.305 149.31 283.508 149.134 283.673 148.985C283.759 148.91 283.833 148.836 283.908 148.777C283.988 148.729 284.063 148.681 284.127 148.639C284.394 148.473 284.532 148.394 284.538 148.399Z" fill="#FAFAFA"/>
<path d="M284.682 132.664C284.692 132.664 284.703 132.819 284.714 133.122C284.719 133.42 284.682 133.868 284.554 134.422C284.287 135.53 283.476 137.053 281.955 138.433C281.203 139.125 280.301 139.791 279.26 140.398C278.23 141.011 277.094 141.591 275.93 142.247C274.772 142.907 273.572 143.648 272.52 144.638C271.453 145.613 270.658 146.897 269.938 148.26C269.212 149.619 268.572 150.998 267.702 152.197C267.27 152.793 266.784 153.342 266.245 153.805C265.701 154.269 265.108 154.647 264.511 154.961C263.305 155.584 262.078 155.973 260.941 156.33C259.799 156.682 258.737 156.996 257.803 157.385C256.869 157.768 256.064 158.205 255.413 158.663C254.762 159.127 254.265 159.606 253.913 160.043C253.203 160.922 253.054 161.556 253.011 161.54C253.001 161.534 253.054 161.39 253.161 161.108C253.283 160.836 253.476 160.432 253.828 159.979C254.175 159.526 254.666 159.02 255.322 158.535C255.978 158.056 256.789 157.603 257.729 157.204C258.668 156.799 259.735 156.474 260.872 156.112C262.003 155.75 263.219 155.355 264.393 154.737C264.98 154.429 265.551 154.061 266.074 153.608C266.592 153.156 267.067 152.623 267.483 152.042C268.332 150.87 268.967 149.501 269.698 148.133C270.418 146.769 271.24 145.448 272.339 144.447C273.417 143.434 274.639 142.689 275.808 142.028C276.982 141.373 278.118 140.803 279.148 140.207C280.178 139.621 281.074 138.971 281.827 138.3C283.337 136.963 284.159 135.487 284.452 134.406C284.735 133.303 284.639 132.659 284.682 132.664Z" fill="#FAFAFA"/>
<path d="M252.275 145.437C252.27 145.437 252.254 145.405 252.227 145.336C252.206 145.267 252.157 145.16 252.125 145.016C252.061 144.734 252.019 144.281 252.179 143.738C252.478 142.651 253.657 141.304 255.557 140.627C256.501 140.302 257.579 140.105 258.694 139.812C259.799 139.514 261.005 139.099 261.907 138.177C262.355 137.719 262.734 137.181 263.043 136.584C263.348 135.983 263.604 135.338 263.838 134.672C264.319 133.346 264.719 131.902 265.53 130.587C266.336 129.266 267.649 128.344 269.009 127.886C270.365 127.391 271.736 127.167 273.001 126.874C274.276 126.597 275.466 126.24 276.475 125.692C277.472 125.127 278.262 124.376 278.823 123.577C279.975 121.979 280.274 120.344 280.317 119.262C280.343 118.165 280.167 117.563 280.205 117.558C280.205 117.558 280.418 118.144 280.429 119.262C280.418 120.36 280.146 122.038 278.988 123.689C278.422 124.514 277.617 125.297 276.592 125.889C275.557 126.459 274.34 126.831 273.065 127.119C271.789 127.417 270.429 127.646 269.111 128.137C267.782 128.595 266.549 129.463 265.77 130.731C264.986 131.993 264.586 133.42 264.1 134.757C263.86 135.429 263.598 136.084 263.283 136.702C262.958 137.314 262.563 137.879 262.088 138.353C261.133 139.322 259.874 139.738 258.753 140.031C257.616 140.318 256.549 140.5 255.621 140.808C253.769 141.437 252.595 142.731 252.28 143.765C252.109 144.281 252.131 144.718 252.179 145C252.238 145.283 252.286 145.432 252.275 145.437Z" fill="#FAFAFA"/>
<path d="M282.702 174.19C282.713 174.19 282.723 174.302 282.739 174.526C282.75 174.744 282.734 175.074 282.643 175.49C282.456 176.31 281.821 177.434 280.626 178.366C280.039 178.84 279.329 179.272 278.508 179.618C277.691 179.964 276.789 180.241 275.85 180.534C274.911 180.827 273.924 181.136 272.963 181.583C271.998 182.026 271.106 182.67 270.338 183.496C269.559 184.311 268.886 185.2 268.145 185.983C267.403 186.772 266.56 187.421 265.685 187.906C263.929 188.876 262.11 189.206 260.61 189.222C259.1 189.238 257.905 188.924 257.115 188.641C256.72 188.503 256.421 188.364 256.229 188.263C256.032 188.167 255.93 188.109 255.936 188.103C255.941 188.093 256.048 188.135 256.25 188.215C256.453 188.3 256.752 188.423 257.147 188.545C257.937 188.79 259.121 189.073 260.599 189.03C262.072 188.987 263.849 188.641 265.551 187.688C266.4 187.214 267.211 186.58 267.937 185.802C268.668 185.03 269.335 184.14 270.13 183.309C270.909 182.468 271.853 181.791 272.841 181.344C273.828 180.886 274.826 180.582 275.77 180.294C276.715 180.007 277.611 179.741 278.412 179.41C279.212 179.08 279.916 178.665 280.493 178.212C281.672 177.317 282.312 176.252 282.526 175.458C282.75 174.659 282.665 174.19 282.702 174.19Z" fill="#FAFAFA"/>
<path d="M280.082 103.581L275.637 103.687C275.343 105.184 274.634 106.207 274.634 106.207C270.914 99.7669 268.033 91.1378 267.318 87.6702C267.424 87.3239 267.547 86.9404 267.702 86.5143C267.878 86.0189 267.729 85.0815 267.643 84.5648C267.52 83.7924 267.302 82.7537 267.238 82.2743C267.04 80.8095 266.805 80.5805 266.293 80.7456C265.594 80.9693 266.581 84.8631 266.01 84.943C265.706 84.9909 265.327 83.6539 265.221 82.562C265.114 81.47 264.618 78.1036 264.255 77.8799C263.726 77.5497 263.262 78.0717 263.396 79.1583C263.529 80.2609 263.705 83.5474 263.123 83.59C262.552 83.6326 262.072 78.0557 262.072 78.0557C262.072 78.0557 262.163 76.8412 261.49 76.8732C260.279 76.9264 261.224 82.807 261.33 83.361C261.405 83.7498 260.775 83.8191 260.722 83.3983C260.663 82.9668 260.375 77.8213 259.143 77.8639C258.198 77.8959 259.874 82.7111 259.345 83.8244C258.817 84.9376 258.449 80.0372 257.542 80.1011C257.206 80.1277 256.96 80.1916 257.574 82.9668C257.905 84.4582 258.881 87.2014 259.73 89.4706C261.16 97.1675 267.435 121.792 277.27 117.281C282.771 114.761 285.007 103.581 285.007 103.581H280.082Z" fill="#B78876"/>
<path d="M261.112 83.734C261.112 83.734 261.154 83.7393 261.24 83.718C261.314 83.6967 261.464 83.6009 261.442 83.4091C261.432 83.0789 261.378 82.5995 261.304 81.9762C261.245 81.3477 261.058 80.5967 261.058 79.7071C261.053 79.2597 261.064 78.7803 261.09 78.2743C261.106 78.0186 261.112 77.7576 261.17 77.5072C261.213 77.2675 261.373 76.9906 261.56 77.0225L261.581 77.0278H261.592C261.784 77.0172 261.928 77.1663 261.992 77.39C262.061 77.6031 262.078 77.8588 262.062 78.1038V78.1145V78.1198C262.184 79.4834 262.323 80.9748 262.632 82.5675C262.675 82.7646 262.718 82.967 262.782 83.1694C262.814 83.2706 262.846 83.3718 262.894 83.473C262.921 83.5263 262.942 83.5742 262.985 83.6328C263.022 83.6808 263.07 83.7607 263.209 83.7713C263.433 83.7553 263.497 83.5849 263.545 83.489C263.593 83.3771 263.625 83.2706 263.646 83.1641C263.694 82.9457 263.716 82.7326 263.732 82.5142C263.79 81.646 263.758 80.7565 263.694 79.8509C263.673 79.3929 263.561 78.9348 263.641 78.5193C263.678 78.3169 263.764 78.1091 263.902 78.0239C263.972 77.9813 264.047 77.976 264.132 77.9973C264.175 78.0079 264.217 78.0292 264.26 78.0505C264.297 78.0825 264.287 78.0665 264.319 78.1304C264.495 78.514 264.591 79.0093 264.687 79.4674C264.783 79.9415 264.863 80.4209 264.938 80.9056C265.012 81.3903 265.082 81.8804 265.14 82.3757C265.189 82.8711 265.258 83.3878 265.386 83.8885C265.45 84.1388 265.519 84.3892 265.626 84.6395C265.679 84.7621 265.738 84.8899 265.845 85.0177C265.882 85.071 266.01 85.1722 266.165 85.1349C266.314 85.087 266.357 84.9645 266.384 84.8952C266.469 84.5863 266.443 84.3359 266.443 84.0643C266.432 83.7979 266.411 83.5369 266.389 83.2759C266.352 82.8285 266.309 82.3811 266.293 81.9443C266.288 81.7259 266.288 81.5075 266.309 81.3051C266.32 81.2039 266.341 81.1027 266.373 81.0281C266.389 80.9908 266.411 80.9642 266.427 80.9482C266.437 80.9376 266.443 80.9429 266.448 80.9322L266.517 80.9109C266.869 80.7671 266.987 81.2572 267.083 81.6513C267.163 82.0668 267.216 82.4929 267.302 82.9137C267.44 83.7553 267.622 84.5863 267.718 85.3853C267.755 85.7848 267.787 86.1949 267.67 86.5305C267.542 86.914 267.419 87.2975 267.296 87.6757L267.286 87.7077L267.296 87.7449C267.947 90.6107 268.849 93.1727 269.682 95.4472C270.525 97.7217 271.373 99.6818 272.115 101.29C272.857 102.899 273.524 104.135 273.988 104.982C274.223 105.381 274.404 105.701 274.543 105.935C274.671 106.148 274.74 106.26 274.751 106.255C274.756 106.25 274.703 106.132 274.586 105.909C274.458 105.669 274.287 105.344 274.073 104.934C273.641 104.076 273.001 102.83 272.28 101.216C271.56 99.6019 270.738 97.6364 269.911 95.362C269.095 93.0875 268.209 90.5201 267.579 87.6864L267.574 87.7556C267.697 87.3827 267.819 87.0099 267.947 86.6264C268.091 86.1896 268.049 85.7688 268.011 85.3533C267.915 84.5224 267.739 83.7127 267.6 82.8658C267.52 82.4503 267.467 82.0189 267.382 81.5874C267.334 81.369 267.286 81.1506 267.163 80.9269C267.104 80.8204 267.013 80.6979 266.869 80.6286C266.72 80.5647 266.571 80.5807 266.448 80.6126L266.357 80.6393C266.314 80.6553 266.266 80.6766 266.234 80.7085C266.165 80.7671 266.128 80.8364 266.101 80.9003C266.042 81.0281 266.026 81.1453 266.01 81.2625C265.984 81.4969 265.984 81.7259 265.994 81.9496C266.01 82.4024 266.053 82.8498 266.09 83.2972C266.112 83.5582 266.133 83.8139 266.144 84.0696C266.154 84.32 266.16 84.5916 266.106 84.7834C266.096 84.8366 266.069 84.8313 266.096 84.8579C266.096 84.842 266.101 84.8846 266.101 84.8792V84.8739C266.101 84.8686 266.101 84.8579 266.101 84.8579C266.106 84.8526 266.117 84.8366 266.106 84.8313C266.101 84.8313 266.09 84.8206 266.074 84.7993C266.016 84.7301 265.957 84.6236 265.909 84.5117C265.813 84.288 265.743 84.0483 265.685 83.8033C265.562 83.3132 265.493 82.8285 265.445 82.3278C265.386 81.8271 265.317 81.3317 265.237 80.8417C265.162 80.3516 265.076 79.8669 264.98 79.3929C264.868 78.9135 264.799 78.45 264.575 77.9707C264.559 77.9227 264.468 77.8162 264.409 77.7842C264.351 77.7469 264.281 77.7203 264.212 77.699C264.068 77.6617 263.892 77.6777 263.758 77.7629C263.492 77.9387 263.412 78.2157 263.364 78.4554C263.321 78.7057 263.326 78.9507 263.353 79.1851C263.38 79.4142 263.401 79.6379 263.417 79.8616C263.486 80.7565 263.518 81.6407 263.465 82.4876C263.449 82.6953 263.428 82.9084 263.39 83.1055C263.369 83.2067 263.342 83.2972 263.31 83.3825C263.294 83.4251 263.273 83.4624 263.251 83.4837C263.23 83.5263 263.214 83.473 263.219 83.5476C263.246 83.4943 263.219 83.521 263.198 83.4783C263.177 83.4517 263.155 83.4038 263.134 83.3665C263.097 83.2813 263.065 83.1854 263.033 83.0948C262.974 82.9084 262.926 82.7113 262.883 82.5142C262.568 80.9482 262.419 79.4514 262.28 78.1038V78.1198C262.291 77.8481 262.275 77.5871 262.195 77.3261C262.152 77.1983 262.094 77.0705 261.987 76.9693C261.88 76.868 261.731 76.8201 261.592 76.8254L261.624 76.8308C261.41 76.7935 261.25 76.9213 261.165 77.0491C261.074 77.1823 261.032 77.3261 261 77.4646C260.941 77.7469 260.941 78.0079 260.93 78.2636C260.909 78.775 260.909 79.2597 260.92 79.7071C260.936 80.618 261.144 81.369 261.213 81.9869C261.304 82.6048 261.373 83.0842 261.405 83.4091C261.437 83.5636 261.314 83.6648 261.25 83.6861C261.154 83.7234 261.112 83.7287 261.112 83.734Z" fill="#A36957"/>
<path d="M226.362 110.916C226.362 110.916 224.884 110.846 223.273 111.267C220.519 111.992 215.759 114.868 215.562 118.426H219.014C219.014 118.426 217.077 122.538 217.648 122.155C219.121 121.169 222.061 118.186 222.061 118.186L226.362 110.916Z" fill="#B78876"/>
<path d="M273.492 49.0259C273.417 49.0313 273.102 46.1816 272.793 42.6553C272.483 39.1291 272.291 36.2688 272.371 36.2634C272.446 36.2581 272.761 39.1078 273.07 42.634C273.38 46.1602 273.572 49.0206 273.492 49.0259Z" fill="#263238"/>
<path d="M288.652 36.4392C288.716 36.4818 286.379 39.8642 283.438 43.9923C280.498 48.1204 278.06 51.4282 277.995 51.3856C277.931 51.343 280.269 47.9606 283.209 43.8325C286.155 39.7044 288.588 36.3966 288.652 36.4392Z" fill="#263238"/>
<path d="M294.949 51.7691C294.965 51.8437 292.238 52.4669 288.865 53.1594C285.488 53.8518 282.739 54.3525 282.723 54.278C282.707 54.2034 285.434 53.5802 288.807 52.8877C292.184 52.1953 294.938 51.6946 294.949 51.7691Z" fill="#263238"/>
<path d="M113.459 124.93L94.5897 221.767L92.1191 234.445L218.086 233.827C223.737 233.8 228.748 228.788 230.567 221.347L252.905 129.921C254.287 124.269 251.256 118.394 246.965 118.394L119.473 118.527C116.66 118.533 114.2 121.153 113.459 124.93Z" fill="#15406A"/>
<g opacity="0.5">
<path opacity="0.5" d="M113.272 124.397L94.403 221.235L91.9323 233.912L217.899 233.294C223.55 233.267 228.561 228.255 230.38 220.814L252.718 129.388C254.1 123.737 251.069 117.862 246.779 117.862L119.286 117.995C116.468 118 114.008 120.621 113.272 124.397Z" fill="#D0DCE8"/>
</g>
<path d="M206.005 215.21L192.669 107.927C192.125 103.533 188.614 100.252 184.473 100.268L155.225 100.364C153.059 100.369 150.983 101.29 149.446 102.92L135.561 117.654L54.2213 118.08C49.2533 118.107 45.4326 122.799 46.0889 128.078L58.4743 227.232C59.0239 231.622 62.5245 234.897 66.66 234.887L208.417 234.61C224.206 234.935 225.711 230.285 225.711 230.285C207.621 234.28 206.01 215.221 206.005 215.21Z" fill="#15406A"/>
<g opacity="0.5">
<path opacity="0.5" d="M144.884 193.739L140.102 198.863L103.282 165.796L108.064 160.671L144.884 193.739Z" fill="white"/>
<path opacity="0.5" d="M138.096 159.537L143.384 164.283L110.065 199.998L104.782 195.257L138.096 159.537Z" fill="white"/>
</g>
<path d="M226.25 55.2794C225.909 55.1356 225.663 54.8 225.647 54.4058L225.434 49.4628C225.418 49.1538 225.551 48.8502 225.791 48.6531C226.031 48.456 226.352 48.3815 226.656 48.4507C227.451 48.6371 228.331 48.4667 229.062 47.9766C229.74 47.5239 230.194 46.8634 230.306 46.1549C230.423 45.4518 230.204 44.6688 229.708 44.0136C229.174 43.3105 228.39 42.8418 227.606 42.7512C225.999 42.5648 224.265 43.7953 223.817 45.4359C223.673 45.9632 223.128 46.2775 222.595 46.1336C222.056 45.9845 221.752 45.4412 221.896 44.9138C222.595 42.3358 225.263 40.4821 227.835 40.7751C229.169 40.9296 230.434 41.6699 231.298 42.8152C232.12 43.9018 232.478 45.2334 232.275 46.4745C232.072 47.721 231.304 48.8715 230.167 49.6279C229.345 50.1765 228.406 50.4748 227.467 50.5068L227.632 54.3206C227.654 54.8692 227.232 55.3327 226.682 55.354C226.528 55.3646 226.384 55.338 226.25 55.2794Z" fill="#D0DCE8"/>
<path d="M227.707 57.3035C227.739 57.7509 227.397 58.1398 226.949 58.1717C226.501 58.2037 226.111 57.8628 226.079 57.4154C226.047 56.9679 226.389 56.5791 226.837 56.5471C227.285 56.5152 227.675 56.8561 227.707 57.3035Z" fill="#D0DCE8"/>
<path d="M209.1 48.3069C209.105 48.3069 209.121 48.195 209.148 47.982C209.174 47.7529 209.206 47.4333 209.254 47.0285C209.276 46.6077 209.388 46.0963 209.51 45.4998C209.58 45.2015 209.617 44.8712 209.729 44.5357C209.836 44.2001 209.943 43.8379 210.06 43.4597C210.578 41.9629 211.373 40.1678 212.712 38.3834C214.041 36.6044 215.914 34.8413 218.315 33.5096C219.5 32.8065 220.85 32.3164 222.269 31.8797C223.71 31.5388 225.236 31.2458 226.832 31.2831C227.627 31.2405 228.433 31.3577 229.254 31.4269C229.665 31.4642 230.066 31.5761 230.476 31.6453C230.887 31.7199 231.304 31.7998 231.704 31.9436C233.353 32.3644 234.954 33.1421 236.474 34.1009C239.537 36.0238 242.115 39.1505 243.529 42.943C244.239 44.8393 244.575 46.9166 244.575 49.0206C244.617 51.1246 244.207 53.2606 243.459 55.2741L243.219 55.8813L243.187 55.9612L243.219 56.0358C244.559 59.1145 245.871 62.1294 247.141 65.0537L247.366 64.798C244.612 63.7433 241.939 62.7153 239.372 61.7352L239.271 61.6979L239.191 61.7725C236.971 63.9191 234.324 65.368 231.645 66.119C228.956 66.8754 226.245 66.9127 223.785 66.4759C221.314 66.0391 219.094 65.0963 217.237 63.8872C215.38 62.678 213.886 61.2026 212.739 59.7058C211.597 58.193 210.845 56.6377 210.279 55.2528C209.777 53.8359 209.473 52.5788 209.324 51.5348C209.26 51.0128 209.206 50.5547 209.158 50.1499C209.148 49.7504 209.137 49.4148 209.132 49.1325C209.121 48.8715 209.116 48.6638 209.11 48.5093C209.11 48.3815 209.105 48.3069 209.1 48.3069C209.094 48.3069 209.089 48.3761 209.089 48.5199C209.089 48.6744 209.084 48.8822 209.078 49.1432C209.078 49.4255 209.078 49.7664 209.078 50.1659C209.121 50.5707 209.169 51.0394 209.217 51.5614C209.35 52.6108 209.639 53.8838 210.129 55.322C210.684 56.7282 211.432 58.3049 212.573 59.8496C213.726 61.373 215.226 62.8804 217.104 64.1215C218.977 65.3626 221.229 66.3321 223.737 66.7848C226.24 67.2376 228.993 67.211 231.73 66.4493C234.463 65.6875 237.163 64.2227 239.431 62.0388L239.255 62.0761C241.816 63.0615 244.489 64.0896 247.243 65.1549L247.643 65.3094L247.467 64.8992C246.197 61.9749 244.884 58.9547 243.55 55.876V56.0304L243.796 55.4072C244.564 53.3512 244.98 51.1619 244.938 49.0153C244.938 46.8687 244.591 44.7434 243.865 42.8045C242.419 38.9321 239.777 35.7468 236.656 33.7972C235.098 32.8225 233.47 32.0395 231.789 31.6133C231.378 31.4748 230.957 31.3949 230.541 31.3151C230.124 31.2458 229.713 31.1339 229.297 31.0967C228.465 31.0274 227.648 30.9156 226.837 30.9635C225.215 30.9315 223.667 31.2352 222.205 31.5867C220.765 32.0341 219.398 32.5402 218.203 33.2593C215.775 34.6282 213.892 36.4233 212.557 38.2396C211.218 40.056 210.428 41.883 209.932 43.3958C209.82 43.7793 209.713 44.1415 209.612 44.4877C209.505 44.8286 209.473 45.1642 209.409 45.4625C209.292 46.0697 209.196 46.5811 209.185 47.0072C209.153 47.4173 209.132 47.7316 209.116 47.966C209.1 48.2003 209.094 48.3069 209.1 48.3069Z" fill="#263238"/>
</g>
<defs>
<clipPath id="clip0_65_28512">
<rect width="321" height="236" fill="white"/>
</clipPath>
</defs>
</svg>
